<svg width="31" height="36" viewBox="0 0 31 36" fill="none" xmlns="http://www.w3.org/2000/svg">
<path d="M4.78228 28.647L11.7129 30.3784L12.4957 27.2323C12.6037 26.7984 13.0423 26.5344 13.4753 26.6425C13.9083 26.7508 14.1719 27.1903 14.064 27.6241L13.2811 30.7701L20.2034 32.4995C20.7098 32.626 21.2214 32.5336 21.6381 32.2828C22.0519 32.0335 22.3712 31.6281 22.4963 31.1262L27.8399 9.6504C27.9661 9.14328 27.8738 8.6305 27.6236 8.21286C27.3748 7.79818 26.9701 7.47825 26.4694 7.35319L19.539 5.62158L18.756 8.76755C18.648 9.2015 18.2094 9.46564 17.7762 9.35742C17.3432 9.2492 17.0798 8.80973 17.1877 8.37579L17.9706 5.22982L11.0481 3.50051C10.5419 3.3741 10.03 3.46641 9.61335 3.71748C9.19949 3.96653 8.88023 4.37204 8.7553 4.8739L3.41158 26.3496C3.28543 26.8567 3.37761 27.3696 3.62801 27.7872C3.87665 28.2017 4.28149 28.5218 4.78228 28.647ZM16.4055 11.5185C16.5135 11.0847 16.9521 10.8206 17.3853 10.9288C17.8183 11.037 18.0819 11.4765 17.9739 11.9104L16.8008 16.6244C16.6929 17.0583 16.2542 17.3225 15.8211 17.2143C15.3881 17.106 15.1246 16.6667 15.2324 16.2325L16.4055 11.5185ZM14.4505 19.3755C14.5584 18.9414 14.9971 18.6774 15.4302 18.7856C15.8632 18.8938 16.1268 19.3332 16.0188 19.7671L14.8458 24.4811C14.7378 24.9152 14.2992 25.1793 13.8661 25.0711C13.433 24.9627 13.1695 24.5235 13.2775 24.0895L14.4505 19.3755ZM19.5613 35.1144L4.14025 31.2617C2.91591 30.9559 1.92835 30.1768 1.32352 29.1682C0.720442 28.1626 0.498078 26.9276 0.801975 25.7064L6.1457 4.23067C6.45094 3.0039 7.22841 2.01445 8.23497 1.40841C9.23857 0.803984 10.4713 0.580947 11.69 0.885787L27.1108 4.73833C28.3353 5.04411 29.323 5.82306 29.9276 6.83178C30.5306 7.83727 30.7531 9.07239 30.4493 10.2936L25.1055 31.7692C24.8004 32.9961 24.0228 33.9856 23.0162 34.5916C22.0129 35.1962 20.7802 35.4189 19.5613 35.1144Z" fill="#004776"/>
<path fill-rule="evenodd" clip-rule="evenodd" d="M7.94854 27.0702C9.38838 27.4298 10.8467 26.552 11.2057 25.1092C11.5647 23.6664 10.6885 22.2051 9.24849 21.8454C7.80865 21.4856 6.35036 22.3636 5.99134 23.8064C5.63232 25.2493 6.50857 26.7106 7.94854 27.0702ZM18.1546 29.6201C16.7146 29.2604 15.8384 27.799 16.1974 26.3563C16.5564 24.9135 18.0147 24.0352 19.4547 24.3951C20.8947 24.7549 21.7709 26.2161 21.4118 27.6589C21.0527 29.1016 19.5943 29.9796 18.1546 29.6201ZM20.0785 21.8873C18.6387 21.5275 17.7624 20.0663 18.1216 18.6236C18.4805 17.1808 19.9388 16.3028 21.3789 16.6625C22.8187 17.0223 23.6948 18.4834 23.3359 19.9264C22.9769 21.3692 21.5185 22.2472 20.0785 21.8873ZM9.87259 19.3377C11.3124 19.6974 12.7707 18.8194 13.1297 17.3765C13.4888 15.9337 12.6125 14.4725 11.1725 14.1127C9.7327 13.7529 8.2744 14.631 7.91539 16.0738C7.55637 17.5165 8.43262 18.9779 9.87259 19.3377ZM13.8307 11.3006C15.1026 10.5347 15.5143 8.88057 14.7499 7.60596C13.9856 6.33135 12.3348 5.91896 11.0627 6.6847C9.79079 7.45057 9.37908 9.10482 10.1433 10.3794C10.9077 11.6539 12.5586 12.0662 13.8307 11.3006ZM22.0027 14.1549C23.4425 14.5143 24.9008 13.6364 25.2599 12.1938C25.6189 10.7508 24.7426 9.28959 23.3028 8.93003C21.8627 8.57021 20.4045 9.4482 20.0455 10.8911C19.6865 12.3339 20.5627 13.7951 22.0027 14.1549ZM9.01804 22.7629C9.37813 22.8524 9.59861 23.2164 9.51007 23.5773C9.42153 23.9383 9.05739 24.1592 8.69716 24.0701C8.4841 24.0174 8.26497 24.1434 8.21174 24.3591C7.96296 25.3662 6.18392 24.7914 7.1983 23.4185C7.61675 22.8523 8.33478 22.593 9.01804 22.7629ZM23.0723 9.84738C23.4324 9.93686 23.653 10.3009 23.5642 10.6618C23.4756 11.0229 23.1116 11.2437 22.7515 11.1547C22.5383 11.102 22.319 11.2279 22.2659 11.4435C22.0174 12.4506 20.2378 11.8759 21.2523 10.503C21.6709 9.93673 22.3889 9.67758 23.0723 9.84738ZM12.8661 7.29775C13.2262 7.3871 13.4467 7.7511 13.358 8.11214C13.2695 8.47318 12.9054 8.69406 12.5451 8.60511C12.3319 8.55228 12.1129 8.67842 12.0597 8.89364C11.8107 9.90156 10.0323 9.3257 11.0463 7.95339C11.465 7.3871 12.183 7.12781 12.8661 7.29775ZM10.9422 15.0301C11.3023 15.1197 11.5228 15.4837 11.4341 15.8446C11.3456 16.2058 10.9814 16.4266 10.6212 16.3376C10.4081 16.285 10.1889 16.4109 10.1357 16.6264C9.88714 17.6333 8.1077 17.059 9.12221 15.6858C9.54093 15.1195 10.2588 14.8604 10.9422 15.0301ZM21.1482 17.58C21.5083 17.6693 21.7287 18.0333 21.64 18.3943C21.5515 18.7554 21.1874 18.9763 20.8273 18.8873C20.6139 18.8345 20.3951 18.9604 20.3417 19.1761C20.0927 20.1838 18.3143 19.6076 19.3283 18.2356C19.747 17.6693 20.465 17.4103 21.1482 17.58ZM19.2241 25.3125C19.5842 25.402 19.8048 25.766 19.716 26.1269C19.6275 26.4881 19.2635 26.7087 18.9032 26.6199C18.6899 26.5673 18.4708 26.6931 18.4177 26.9088C18.1692 27.9159 16.3897 27.341 17.4042 25.9683C17.8229 25.4018 18.5408 25.1426 19.2241 25.3125Z" fill="#04D9B2"/>
</svg>
