<svg width="36" height="36" viewBox="0 0 36 36" fill="none" xmlns="http://www.w3.org/2000/svg">
<path d="M18.3496 24.9748C18.0514 24.9748 17.8096 24.733 17.8096 24.4349C17.8096 24.1365 18.0514 23.8947 18.3496 23.8947H21.759L20.3182 22.4541C20.1072 22.2431 20.1072 21.9011 20.3182 21.6904C20.5291 21.4795 20.871 21.4795 21.0818 21.6904L23.4444 24.053C23.6553 24.2638 23.6553 24.6058 23.4444 24.8166L21.0817 27.1793C20.8708 27.3902 20.529 27.3903 20.3181 27.1793C20.1072 26.9683 20.1072 26.6264 20.3181 26.4157L21.759 24.9748H18.3496ZM6.23774 16.6045L5.90374 12.7497C5.87268 12.3912 5.55812 11.9697 5.16728 11.9697H1.52201C1.188 11.9697 1.05651 12.3106 1.08148 12.5963L1.43101 16.6045H1.25888C0.937703 16.6045 0.693479 16.8788 0.72156 17.1986L1.37067 24.5862C1.42183 25.1689 1.79607 25.6745 2.27426 25.9114L2.33379 26.5018C2.36876 26.848 2.61865 27.1349 2.96683 27.1349H8.58022C8.92839 27.1349 9.24836 26.8481 9.21339 26.5018L9.19557 26.3254H10.1394C10.2988 26.3254 10.4224 26.1904 10.4083 26.0316L10.1702 23.3304C10.1579 23.1906 10.0415 23.0842 9.90124 23.0842H8.89532L8.8775 22.9077C8.84253 22.5613 8.59237 22.2744 8.24432 22.2744H8.11674C7.99834 22.2744 7.89628 22.3075 7.80029 22.377L7.32993 22.7171C7.22017 22.7965 7.07423 22.6813 7.12607 22.5562L7.40688 21.878C7.44185 21.7935 7.45346 21.7136 7.44563 21.6223L7.05587 17.0903C7.03198 16.8129 6.79653 16.6043 6.51855 16.6043H6.23774V16.6045Z" fill="#04D9B2"/>
<path d="M20.2774 17.5376C19.6856 17.4793 19.253 16.9524 19.3113 16.3605C19.3127 16.346 19.3144 16.3317 19.3165 16.3174C19.2448 16.3081 19.1726 16.2995 19.0998 16.2916C18.5081 16.2286 18.0792 15.6979 18.1421 15.106C18.2051 14.5142 18.7358 14.0854 19.3277 14.1483C19.9907 14.2201 20.6279 14.3478 21.2419 14.527C21.8466 14.7036 22.4188 14.9267 22.9618 15.1932C23.2099 15.305 23.4162 15.5102 23.523 15.7837C23.7395 16.3382 23.4657 16.9634 22.9113 17.1802C22.565 17.3154 22.1818 17.4311 21.7389 17.5013C21.3019 17.5703 20.8198 17.5915 20.2774 17.5376ZM35.2806 5.35189C33.5756 4.09648 31.3587 3.42024 28.9114 3.42024C24.51 3.42024 19.253 5.68184 17.4399 9.93977C16.9645 11.0559 16.9498 12.195 16.9393 13.0228C16.9307 13.7018 16.9238 14.2366 16.7223 14.724C15.8879 16.7432 14.355 17.9868 13.412 19.7636C13.9534 19.9354 14.4283 19.9747 14.9342 20.2952C15.8182 20.8554 15.6956 21.5617 15.5284 22.5254C15.3427 23.5957 15.2924 24.133 15.8891 25.0837C16.2581 25.6715 16.5699 26.1686 16.5651 27.3518C16.5626 27.9078 16.6881 28.2169 16.8985 28.3733C17.38 28.731 18.5085 28.7865 19.162 28.8447C22.8153 29.1703 22.8421 29.173 24.3669 32.6471C24.5217 33.0003 24.5227 33.0064 24.6928 33.3926C25.4072 35.0158 22.9389 36.1024 22.2244 34.4791C22.102 34.201 22.0525 34.0739 21.8984 33.7228C21.015 31.7099 20.9999 31.7084 18.93 31.524C18.6378 31.4981 18.3447 31.4741 18.0527 31.4435C16.9979 31.3331 16.0508 31.0974 15.2952 30.5356C14.4019 29.8717 13.8686 28.8786 13.8751 27.341C13.8767 26.9423 13.7548 26.7479 13.6106 26.518C13.3318 26.074 13.0163 25.5711 12.8018 24.595C12.6268 23.7989 12.7131 23.0268 12.815 22.3967C10.895 21.8509 9.95278 20.3337 11.1221 18.3476C12.0321 16.8018 13.5835 15.2717 14.2329 13.7006C14.2404 13.6821 14.2443 13.3775 14.2495 12.991C14.263 11.9343 14.2817 10.4799 14.9611 8.88471C17.2049 3.61505 23.4125 0.719727 28.9114 0.719727C31.2477 0.719727 33.4217 1.23828 35.2806 2.19749V5.35189ZM28.2359 21.0476C28.2359 20.6002 28.5985 20.2376 29.0459 20.2376C29.4932 20.2376 29.8559 20.6002 29.8559 21.0476C29.8559 21.2477 29.9361 21.407 30.0564 21.5105C30.1428 21.5848 30.2474 21.6357 30.3584 21.6582C30.4659 21.68 30.5806 21.6744 30.6908 21.637C30.876 21.5737 31.0548 21.4082 31.1807 21.1133C31.7136 19.8663 32.0355 19.5373 32.5243 19.0379C32.706 18.8523 32.916 18.6376 33.1771 18.3166C33.5169 17.8987 33.6611 17.4281 33.648 16.9814C33.64 16.7093 33.5715 16.4411 33.4519 16.1956C33.3339 15.9537 33.1686 15.7405 32.9652 15.5752C32.655 15.3228 32.248 15.172 31.7742 15.1857C31.4413 15.1954 31.1227 15.2957 30.8517 15.4705C30.591 15.6385 30.377 15.8757 30.2411 16.1665C30.0525 16.57 29.5721 16.7442 29.1685 16.5556C28.7648 16.3668 28.5907 15.8866 28.7793 15.483C29.0497 14.9057 29.4694 14.4382 29.9785 14.1098C30.49 13.78 31.095 13.5903 31.7301 13.572C32.6161 13.5462 33.3877 13.837 33.9843 14.3222C34.3769 14.6415 34.6902 15.0412 34.9077 15.487C35.1233 15.9293 35.247 16.4238 35.2619 16.9371C35.2857 17.75 35.0312 18.5967 34.4303 19.3355C34.1191 19.7182 33.8817 19.9608 33.6763 20.1707C33.3179 20.537 33.0817 20.7783 32.6681 21.7463C32.3412 22.5109 31.802 22.9668 31.2099 23.1685C30.8245 23.2999 30.4192 23.3181 30.0359 23.2402C29.6561 23.1631 29.299 22.9902 29.0061 22.7381C28.5438 22.3405 28.2359 21.7562 28.2359 21.0476Z" fill="#004776"/>
</svg>
