<svg width="42" height="32" viewBox="0 0 42 32" fill="none" xmlns="http://www.w3.org/2000/svg">
<path d="M21.6997 28.7133V11.0487C21.6997 9.81676 22.019 8.76149 22.8241 8.27225V7.97656C21.1682 7.97656 19.8256 9.3521 19.8256 11.0487V28.7133C19.8256 29.9852 20.8323 31.0174 22.0745 31.0174H23.9486C22.7064 31.0174 21.6997 29.9852 21.6997 28.7133Z" fill="#004776"/>
<path d="M33.3192 7.97694V5.67285H25.0731H23.9486H22.8242V8.27263C22.0191 8.76186 21.6997 9.81713 21.6997 11.0491V28.7137C21.6997 29.9856 22.7065 31.0178 23.9486 31.0178H34.0688C35.311 31.0178 36.3178 29.9856 36.3178 28.7137V11.0491C36.3178 9.35248 34.9752 7.97694 33.3192 7.97694Z" fill="#004776"/>
<path d="M34.4437 28.7133V11.0487C34.4437 9.81676 34.1243 8.76149 33.3192 8.27225V7.97656C34.9752 7.97656 36.3178 9.3521 36.3178 11.0487V28.7133C36.3178 29.9852 35.311 31.0174 34.0689 31.0174H32.1948C33.4369 31.0174 34.4437 29.9852 34.4437 28.7133Z" fill="#004776"/>
<path d="M34.0689 31.402H22.0746C20.6277 31.402 19.4508 30.1962 19.4508 28.7139V11.0493C19.4508 9.27283 20.7649 7.80589 22.4494 7.61388V5.28906H33.694V7.61388C35.3785 7.80589 36.6926 9.27283 36.6926 11.0493V28.7139C36.6926 30.1962 35.5157 31.402 34.0689 31.402ZM22.8242 8.36118C21.3774 8.36118 20.2004 9.56698 20.2004 11.0493V28.7139C20.2004 29.773 21.0416 30.634 22.0746 30.634H34.0689C35.1019 30.634 35.943 29.773 35.943 28.7139V11.0493C35.943 9.56698 34.766 8.36118 33.3192 8.36118H32.9444V6.05709H23.199V8.36118H22.8242Z" fill="#004776"/>
<path d="M34.0689 1.06445H22.0745C21.2469 1.06445 20.5753 1.75261 20.5753 2.60051V4.13657C20.5753 4.98447 21.2469 5.67262 22.0745 5.67262H34.0689C34.8965 5.67262 35.5681 4.98447 35.5681 4.13657V2.60051C35.5681 1.75261 34.8965 1.06445 34.0689 1.06445Z" fill="#004776"/>
<path d="M34.0689 1.06445H22.0745C21.2469 1.06445 20.5753 1.75261 20.5753 2.60051V4.13657C20.5753 4.98447 21.2469 5.67262 22.0745 5.67262H34.0689C34.8965 5.67262 35.5681 4.98447 35.5681 4.13657V2.60051C35.5681 1.75261 34.8965 1.06445 34.0689 1.06445Z" fill="#004776"/>
<path d="M35.5681 4.13657V2.60051C35.5681 1.75261 34.8964 1.06445 34.0688 1.06445H23.199C22.3714 1.06445 21.6997 1.75261 21.6997 2.60051V4.13657C21.6997 4.98447 22.3714 5.67262 23.199 5.67262H34.0688C34.8964 5.67262 35.5681 4.98447 35.5681 4.13657Z" fill="#004776"/>
<path d="M35.5681 4.13657V2.60051C35.5681 1.75261 34.8964 1.06445 34.0688 1.06445H32.9443C33.7719 1.06445 34.4436 1.75261 34.4436 2.60051V4.13657C34.4436 4.98447 33.7719 5.67262 32.9443 5.67262H34.0688C34.8964 5.67262 35.5681 4.98447 35.5681 4.13657Z" fill="#004776"/>
<path d="M34.0688 6.05686H22.0745C21.0415 6.05686 20.2004 5.1959 20.2004 4.13679V2.60073C20.2004 1.54162 21.0415 0.680664 22.0745 0.680664H34.0688C35.1018 0.680664 35.9429 1.54162 35.9429 2.60073V4.13679C35.9429 5.1959 35.1018 6.05686 34.0688 6.05686ZM22.0745 1.44869C21.4545 1.44869 20.95 1.96558 20.95 2.60073V4.13679C20.95 4.77195 21.4545 5.28883 22.0745 5.28883H34.0688C34.6888 5.28883 35.1933 4.77195 35.1933 4.13679V2.60073C35.1933 1.96558 34.6888 1.44869 34.0688 1.44869H22.0745Z" fill="#004776"/>
<path d="M36.3177 13.3535H19.8256V26.41H36.3177V13.3535Z" fill="#004776"/>
<path d="M36.3178 13.3535H21.6997V26.41H36.3178V13.3535Z" fill="#004776"/>
<path d="M36.3178 13.3535H34.4437V26.41H36.3178V13.3535Z" fill="#004776"/>
<path d="M36.6926 26.7933H19.4508V12.9688H36.6926V26.7933ZM20.2004 26.0252H35.943V13.7368H20.2004V26.0252Z" fill="#039177" fill-opacity="0.3"/>
<path d="M32.9443 6.05664H23.199V6.82467H32.9443V6.05664Z" fill="#004776"/>
<path d="M28.4465 23.7213C30.5166 23.7213 32.1947 22.002 32.1947 19.8812C32.1947 17.7603 30.5166 16.041 28.4465 16.041C26.3764 16.041 24.6983 17.7603 24.6983 19.8812C24.6983 22.002 26.3764 23.7213 28.4465 23.7213Z" fill="#005E9D" fill-opacity="0.3"/>
<path d="M22.8493 14.328C22.8493 14.0133 22.3667 13.7539 21.7765 13.7539H1.38781C0.797979 13.7539 0.315063 14.0123 0.315063 14.328V18.2477H22.8493V14.328Z" fill="#004776"/>
<path d="M19.2726 29.4972H3.89139V27.6904H9.46959H15.338V25.4979H3.89139V22.9612H9.46959H15.338V20.547H3.89139V19.3096H0.315063V30.069C0.315063 30.4368 0.596554 30.7699 1.04936 31.011C1.50216 31.2521 2.12954 31.4019 2.81872 31.4019H20.3459C21.0305 31.4019 21.655 31.2517 22.1078 31.011L22.1147 31.0073C22.5675 30.7659 22.8493 30.4336 22.8493 30.069V19.3096H19.2726V29.4972Z" fill="#004776"/>
<path fill-rule="evenodd" clip-rule="evenodd" d="M25.9657 23.9671C26.0147 23.0893 26.1245 22.4439 26.3811 21.6414C25.6726 16.3972 30.208 17.3505 32.2785 15.96C32.2785 22.018 28.4229 20.8064 26.7195 21.958C27.0802 20.9008 28.2581 19.6584 29.571 18.7303C29.592 18.7032 29.599 18.6681 29.5977 18.6389C28.4831 19.356 27.5902 19.8938 27.0591 20.7332C26.577 21.4952 26.3465 22.7305 26.3265 23.967C26.2297 23.967 26.0625 23.9671 25.9657 23.9671Z" fill="#04D9B2"/>
</svg>
