<svg width="36" height="36" viewBox="0 0 36 36" fill="none" xmlns="http://www.w3.org/2000/svg">
<path d="M6.74953 14.4736C7.95189 12.5781 10.4043 12.264 12.153 13.6147L18.1115 18.2168C18.1749 16.75 18.1691 15.2763 18.0802 13.7947C17.9795 12.0859 19.2845 10.6187 20.9948 10.5183C22.7049 10.4176 24.1729 11.7216 24.2734 13.4307C24.3857 15.3014 24.3809 17.1677 24.2808 19.0297C24.1803 20.9002 24.0195 22.7363 23.728 24.533C23.347 26.8796 20.6795 28.0291 18.7611 26.5475L14.9875 23.633C14.3995 25.041 13.9906 26.6453 13.7417 28.3534C13.4207 30.5541 13.3714 32.9143 13.5505 35.2543H0.804443C0.903889 27.6477 2.66014 20.9204 6.74953 14.4736ZM15.6216 0.812293C18.964 0.978215 21.5392 3.82056 21.3732 7.16108C21.3426 7.7704 21.2231 8.35416 21.0277 8.90051C18.8032 8.97237 16.9198 10.6068 16.531 12.7954C16.0447 12.8941 15.5384 12.9343 15.0199 12.9086C11.6774 12.7426 9.10231 9.90035 9.26851 6.55983C9.43456 3.21958 12.2789 0.646236 15.6216 0.812293Z" fill="#004776"/>
<path d="M31.0342 10.6637C30.671 12.1884 28.1272 10.233 27.2427 9.76226C28.2446 9.73993 31.3971 9.13881 31.0342 10.6637ZM35.1423 16.1976C34.3966 17.5764 32.4462 15.0298 31.7136 14.3463C32.6872 14.5838 35.8879 14.8185 35.1423 16.1976ZM31.7798 16.5172C30.9482 17.6659 29.5001 15.1519 28.9236 14.4525C29.7687 14.7806 32.6113 15.3686 31.7798 16.5172ZM33.5716 13.2032C33.0659 14.5277 31.016 12.4739 30.2782 11.9474C31.1795 12.0458 34.0774 11.8785 33.5716 13.2032ZM28.2634 15.7878C27.1859 16.9269 25.9615 13.9625 25.4309 13.1127C26.3099 13.5942 29.3409 14.6488 28.2634 15.7878ZM29.9862 13.408C29.2405 14.787 27.29 12.2402 26.5575 11.5566C27.5311 11.7944 30.7318 12.0292 29.9862 13.408Z" fill="#039177"/>
</svg>
