<svg width="20" height="21" viewBox="0 0 20 21" fill="none" xmlns="http://www.w3.org/2000/svg">
<path d="M1.60002 0.200195C1.28176 0.200195 0.97654 0.326623 0.751496 0.551667C0.526453 0.776711 0.400024 1.08194 0.400024 1.4002C0.400024 1.71846 0.526453 2.02368 0.751496 2.24872C0.97654 2.47377 1.28176 2.6002 1.60002 2.6002H3.06402L3.43002 4.0666C3.43366 4.08348 3.43766 4.10028 3.44202 4.117L5.07162 10.633L4.00002 11.7034C2.48802 13.2154 3.55842 15.8002 5.69682 15.8002H16C16.3183 15.8002 16.6235 15.6738 16.8486 15.4487C17.0736 15.2237 17.2 14.9185 17.2 14.6002C17.2 14.2819 17.0736 13.9767 16.8486 13.7517C16.6235 13.5266 16.3183 13.4002 16 13.4002H5.69682L6.89682 12.2002H14.8C15.0228 12.2001 15.2412 12.1379 15.4307 12.0207C15.6201 11.9035 15.7732 11.7359 15.8728 11.5366L19.4728 4.3366C19.5642 4.15369 19.6074 3.95046 19.5982 3.7462C19.589 3.54194 19.5277 3.34342 19.4203 3.16947C19.3128 2.99552 19.1627 2.85192 18.9841 2.75229C18.8055 2.65266 18.6045 2.6003 18.4 2.6002H5.53603L5.16402 1.1086C5.09902 0.849099 4.94917 0.618766 4.73827 0.454182C4.52738 0.289598 4.26754 0.200202 4.00002 0.200195H1.60002ZM17.2 18.8002C17.2 19.2776 17.0104 19.7354 16.6728 20.073C16.3353 20.4106 15.8774 20.6002 15.4 20.6002C14.9226 20.6002 14.4648 20.4106 14.1272 20.073C13.7897 19.7354 13.6 19.2776 13.6 18.8002C13.6 18.3228 13.7897 17.865 14.1272 17.5274C14.4648 17.1898 14.9226 17.0002 15.4 17.0002C15.8774 17.0002 16.3353 17.1898 16.6728 17.5274C17.0104 17.865 17.2 18.3228 17.2 18.8002ZM5.80002 20.6002C6.27741 20.6002 6.73525 20.4106 7.07282 20.073C7.41038 19.7354 7.60002 19.2776 7.60002 18.8002C7.60002 18.3228 7.41038 17.865 7.07282 17.5274C6.73525 17.1898 6.27741 17.0002 5.80002 17.0002C5.32263 17.0002 4.8648 17.1898 4.52723 17.5274C4.18967 17.865 4.00002 18.3228 4.00002 18.8002C4.00002 19.2776 4.18967 19.7354 4.52723 20.073C4.8648 20.4106 5.32263 20.6002 5.80002 20.6002Z" fill="#262626"/>
</svg>
