<svg width="60" height="60" viewBox="0 0 60 60" fill="none" xmlns="http://www.w3.org/2000/svg">
<path d="M30.5419 2.98821C30.1941 2.85024 29.8059 2.85024 29.4581 2.98821L12.0718 9.87153L30 16.9682L47.9282 9.87153L30.5419 2.98821ZM50.3928 12.0026L31.4566 19.5001V42.3446L50.3928 34.847V12.0026ZM28.5434 42.3474V19.4972L9.60719 12.0026V34.8499L28.5434 42.3474ZM28.3773 0.309275C29.419 -0.103092 30.581 -0.103092 31.6227 0.309275L52.3913 8.53351C52.6613 8.64062 52.8928 8.82531 53.0558 9.06379C53.2188 9.30226 53.306 9.58359 53.3061 9.87153V34.8499C53.3057 35.4261 53.1309 35.989 52.8043 36.466C52.4777 36.943 52.0142 37.3122 51.4736 37.5259L30.5419 45.8136C30.1941 45.9516 29.8059 45.9516 29.4581 45.8136L8.52929 37.5259C7.98816 37.3126 7.52405 36.9436 7.19689 36.4666C6.86973 35.9896 6.69454 35.4265 6.69394 34.8499V9.87153C6.69401 9.58359 6.78117 9.30226 6.94421 9.06379C7.10724 8.82531 7.33868 8.64062 7.6087 8.53351L28.3773 0.309275Z" fill="#008DEB"/>
<path d="M10.9849 49.2189V59.8616H9.57102V51.9257L5.99743 59.8616H5.00303L1.4139 51.9103V59.8616H0V49.2189H1.52266L5.50023 58.016L9.4778 49.2189H10.9849Z" fill="#008DEB"/>
<path d="M21.1515 55.3246C21.1515 55.5912 21.1359 55.8731 21.1049 56.1705H14.2995C14.3513 57.001 14.6361 57.652 15.154 58.1237C15.6823 58.5851 16.3193 58.8158 17.0651 58.8158C17.6763 58.8158 18.1838 58.6774 18.5878 58.4005C19.0021 58.1134 19.2922 57.7341 19.4579 57.2624H20.9806C20.7527 58.0724 20.2969 58.7337 19.6133 59.2464C18.9296 59.7488 18.0802 60 17.0651 60C16.2572 60 15.5321 59.8206 14.8899 59.4617C14.258 59.1029 13.7609 58.5953 13.3983 57.9391C13.0358 57.2727 12.8545 56.5037 12.8545 55.6322C12.8545 54.7607 13.0306 53.9968 13.3828 53.3406C13.735 52.6844 14.227 52.182 14.8588 51.8334C15.501 51.4746 16.2365 51.2952 17.0651 51.2952C17.8731 51.2952 18.5878 51.4695 19.2093 51.8181C19.8308 52.1667 20.3073 52.6486 20.6387 53.2637C20.9806 53.8687 21.1515 54.5556 21.1515 55.3246ZM19.691 55.0324C19.691 54.4992 19.5718 54.043 19.3336 53.6636C19.0954 53.274 18.7691 52.9818 18.3547 52.787C17.9508 52.5819 17.5002 52.4794 17.003 52.4794C16.2883 52.4794 15.6771 52.7049 15.1696 53.1561C14.6724 53.6072 14.3875 54.2327 14.315 55.0324H19.691Z" fill="#008DEB"/>
<path d="M22.4895 55.6168C22.4895 54.7556 22.6656 54.002 23.0178 53.356C23.37 52.6998 23.8516 52.1923 24.4627 51.8334C25.0842 51.4746 25.7782 51.2952 26.5448 51.2952C27.2077 51.2952 27.824 51.4489 28.3937 51.7565C28.9634 52.0539 29.3985 52.4486 29.6988 52.9408V48.4807H31.1283V59.8616H29.6988V58.2775C29.4192 58.7799 29.0048 59.1951 28.4559 59.5232C27.9069 59.8411 27.2647 60 26.5292 60C25.7731 60 25.0842 59.8154 24.4627 59.4463C23.8516 59.0772 23.37 58.5594 23.0178 57.893C22.6656 57.2265 22.4895 56.4678 22.4895 55.6168ZM29.6988 55.6322C29.6988 54.9965 29.5694 54.4428 29.3104 53.9712C29.0515 53.4996 28.6993 53.1407 28.2539 52.8946C27.8188 52.6383 27.3372 52.5101 26.8089 52.5101C26.2806 52.5101 25.799 52.6332 25.3639 52.8792C24.9289 53.1253 24.5819 53.4842 24.3229 53.9558C24.064 54.4275 23.9345 54.9811 23.9345 55.6168C23.9345 56.2628 24.064 56.8267 24.3229 57.3086C24.5819 57.7802 24.9289 58.1442 25.3639 58.4005C25.799 58.6466 26.2806 58.7696 26.8089 58.7696C27.3372 58.7696 27.8188 58.6466 28.2539 58.4005C28.6993 58.1442 29.0515 57.7802 29.3104 57.3086C29.5694 56.8267 29.6988 56.2679 29.6988 55.6322Z" fill="#008DEB"/>
<path d="M34.9315 53.0023C35.2216 52.4999 35.6463 52.0898 36.2056 51.7719C36.7649 51.4541 37.402 51.2952 38.1167 51.2952C38.8832 51.2952 39.572 51.4746 40.1832 51.8334C40.7943 52.1923 41.276 52.6998 41.6281 53.356C41.9803 54.002 42.1564 54.7556 42.1564 55.6168C42.1564 56.4678 41.9803 57.2265 41.6281 57.893C41.276 58.5594 40.7891 59.0772 40.1676 59.4463C39.5565 59.8154 38.8729 60 38.1167 60C37.3813 60 36.7339 59.8411 36.1745 59.5232C35.6255 59.2054 35.2112 58.8004 34.9315 58.3082V59.8616H33.5176V48.4807H34.9315V53.0023ZM40.7114 55.6168C40.7114 54.9811 40.582 54.4275 40.323 53.9558C40.0641 53.4842 39.7119 53.1253 39.2665 52.8792C38.8314 52.6332 38.3498 52.5101 37.8215 52.5101C37.3036 52.5101 36.8219 52.6383 36.3765 52.8946C35.9415 53.1407 35.5893 53.5047 35.32 53.9866C35.061 54.4582 34.9315 55.0068 34.9315 55.6322C34.9315 56.2679 35.061 56.8267 35.32 57.3086C35.5893 57.7802 35.9415 58.1442 36.3765 58.4005C36.8219 58.6466 37.3036 58.7696 37.8215 58.7696C38.3498 58.7696 38.8314 58.6466 39.2665 58.4005C39.7119 58.1442 40.0641 57.7802 40.323 57.3086C40.582 56.8267 40.7114 56.2628 40.7114 55.6168Z" fill="#008DEB"/>
<path d="M47.7309 60C46.9333 60 46.2083 59.8206 45.5557 59.4617C44.9135 59.1029 44.4059 58.5953 44.033 57.9391C43.6705 57.2727 43.4892 56.5037 43.4892 55.6322C43.4892 54.7709 43.6757 54.0122 44.0486 53.356C44.4318 52.6896 44.9497 52.182 45.6023 51.8334C46.2549 51.4746 46.9851 51.2952 47.7931 51.2952C48.601 51.2952 49.3313 51.4746 49.9839 51.8334C50.6364 52.182 51.1492 52.6844 51.5221 53.3406C51.9053 53.9968 52.0969 54.7607 52.0969 55.6322C52.0969 56.5037 51.9001 57.2727 51.5065 57.9391C51.1233 58.5953 50.6002 59.1029 49.9372 59.4617C49.2743 59.8206 48.5389 60 47.7309 60ZM47.7309 58.7696C48.2385 58.7696 48.715 58.6517 49.1604 58.4159C49.6058 58.1801 49.9631 57.8263 50.2325 57.3547C50.5121 56.8831 50.652 56.3089 50.652 55.6322C50.652 54.9555 50.5173 54.3813 50.248 53.9097C49.9787 53.438 49.6265 53.0894 49.1914 52.8639C48.7564 52.6281 48.2851 52.5101 47.7775 52.5101C47.2596 52.5101 46.7832 52.6281 46.3481 52.8639C45.9234 53.0894 45.5816 53.438 45.3226 53.9097C45.0637 54.3813 44.9342 54.9555 44.9342 55.6322C44.9342 56.3191 45.0585 56.8984 45.3071 57.3701C45.5661 57.8417 45.9079 58.1955 46.3326 58.4313C46.7573 58.6568 47.2234 58.7696 47.7309 58.7696Z" fill="#008DEB"/>
<path d="M58.3997 59.8616L56.3798 56.7241L54.4376 59.8616H52.9616L55.7117 55.6783L52.9616 51.4336H54.5619L56.5818 54.5556L58.5084 51.4336H59.9845L57.2499 55.6014L60 59.8616H58.3997Z" fill="#008DEB"/>
</svg>
