<svg width="34" height="30" viewBox="0 0 34 30" fill="none" xmlns="http://www.w3.org/2000/svg">
<path fill-rule="evenodd" clip-rule="evenodd" d="M14.7832 10.2451C18.3958 9.25583 21.9136 10.1968 25.5825 13.0013C26.5798 13.7634 27.6198 14.6123 28.4225 15.58H26.2134C25.708 15.58 25.2732 15.4244 24.8828 15.1037C24.194 14.5373 23.4645 14.0064 22.7068 13.548C22.9662 14.1942 23.1092 14.8995 23.1092 15.6381C23.1092 18.7414 20.5901 21.257 17.4824 21.257C14.5224 21.257 12.0965 18.9748 11.8726 16.0762C12.3156 15.8168 12.7225 15.5021 13.0833 15.1417C14.1672 14.0594 14.8375 12.5643 14.8375 10.9129C14.8377 10.703 14.8184 10.4797 14.7832 10.2451ZM32.3606 20.4566C32.6604 20.1453 33.1562 20.1357 33.4678 20.4351C33.7795 20.7345 33.789 21.2294 33.4892 21.5407C30.0613 25.098 26.044 27.8039 21.5836 28.8747C18.1646 29.6953 14.6677 29.5064 11.219 28.1909C10.8141 28.0371 10.611 27.5844 10.765 27.1802C10.9191 26.776 11.3724 26.573 11.7771 26.7269C14.9256 27.9279 18.112 28.102 21.2217 27.3556C25.376 26.3584 29.1592 23.7772 32.3606 20.4566ZM5.90401 17.0442C9.06876 20.6065 13.2851 23.6611 18.2874 23.3315C23.3325 22.9987 27.6657 19.3272 30.7713 15.58C26.2704 10.7684 21.9442 8.23804 17.6983 8.17823C16.6002 8.16279 15.4892 8.3121 14.3636 8.62956C14.0983 7.85607 13.7432 7.02827 13.3555 6.19459C14.8442 5.74706 16.4123 5.5199 18.066 5.58389C23.1663 5.78109 28.1992 8.81616 33.2965 14.4685C33.8199 15.0487 33.8478 15.9037 33.3635 16.5169C24.3772 27.8896 13.418 29.4256 3.95151 18.7697C3.84434 18.6489 3.63052 18.5665 3.40624 18.729C1.44575 20.151 -0.963697 17.4759 0.852452 15.4622C1.60854 14.6238 2.39603 13.7786 3.21728 12.9541C3.52531 13.8015 4.01236 14.5482 4.65355 15.1814C4.38844 15.4574 4.12215 15.7412 3.85494 16.0339C4.64256 16.0889 5.38033 16.4546 5.90401 17.0442Z" fill="#004776"/>
<path fill-rule="evenodd" clip-rule="evenodd" d="M8.84839 15.4864C11.3778 15.4864 13.4283 13.4388 13.4283 10.9129C13.4283 8.56988 10.1249 3.20388 9.45909 1.01662C9.28165 0.433263 8.41513 0.433263 8.23769 1.01662C7.57176 3.20388 4.26843 8.56988 4.26843 10.9129C4.26843 13.4388 6.31881 15.4864 8.84839 15.4864ZM7.76909 4.69027C7.93161 4.28932 8.38895 4.09592 8.79042 4.25844C9.19176 4.42084 9.38555 4.87739 9.2229 5.2782C8.59257 6.82662 7.16741 9.90854 7.16741 10.9129C7.16741 11.3459 6.81567 11.6969 6.38215 11.6969C5.94862 11.6969 5.59701 11.3459 5.59701 10.9129C5.59701 9.57734 7.03761 6.47972 7.76909 4.69027Z" fill="#04D9B2"/>
</svg>
