<svg width="34" height="32" viewBox="0 0 34 32" fill="none" xmlns="http://www.w3.org/2000/svg">
<path d="M11.0692 4.71353C11.0692 3.86446 11.76 3.17372 12.609 3.17372H21.4078C22.2569 3.17372 22.9476 3.86446 22.9476 4.71353V7.10882H25.4407V4.71353C25.4407 2.48982 23.6315 0.680664 21.4078 0.680664H12.609C10.3855 0.680664 8.57617 2.48982 8.57617 4.71353V7.10882H11.0692V4.71353Z" fill="#004776"/>
<path d="M31.1844 8.63867H2.83248C1.29994 8.63867 0.0461426 9.89247 0.0461426 11.425V28.5339C0.0461426 30.0665 1.29994 31.3203 2.83248 31.3203H31.1842C32.7168 31.3203 33.9705 30.0665 33.9705 28.5339V11.425C33.9705 9.89261 32.7168 8.63867 31.1844 8.63867ZM17.0084 27.8249C12.5943 27.8249 9.01609 24.2467 9.01609 19.8326C9.01609 15.4185 12.5943 11.8403 17.0084 11.8403C21.4225 11.8403 25.0007 15.4185 25.0007 19.8326C25.0007 24.2467 21.4225 27.8249 17.0084 27.8249Z" fill="#004776"/>
<path d="M18.6319 15.2295H15.3855V18.2646H12.4054V21.4H15.3855V24.4354H18.6319V21.4H21.6116V18.2646H18.6319V15.2295Z" fill="#039177"/>
</svg>
