<svg width="277" height="261" viewBox="0 0 277 261" fill="none" xmlns="http://www.w3.org/2000/svg">
<path d="M151.764 206.341H88.0894V255.453H151.764V206.341Z" fill="#EBEBEB"/>
<path d="M135.813 255.11C135.728 255.11 135.654 244.161 135.654 230.655C135.654 217.15 135.728 206.2 135.813 206.2C135.899 206.2 135.972 217.15 135.972 230.655C135.972 244.161 135.899 255.11 135.813 255.11Z" fill="#E0E0E0"/>
<path d="M146.365 244.277H141.486V249.798H146.365V244.277Z" fill="#FAFAFA"/>
<path d="M114.752 206.469H107.519V216.948H114.752V206.469Z" fill="#E0E0E0"/>
<path d="M114.752 244.827H107.519V255.306H114.752V244.827Z" fill="#E0E0E0"/>
<path d="M267.307 194.028H187.016V255.954H267.307V194.028Z" fill="#EBEBEB"/>
<path d="M247.187 255.514C247.102 255.514 247.028 241.715 247.028 224.688C247.028 207.662 247.102 193.863 247.187 193.863C247.273 193.863 247.346 207.662 247.346 224.688C247.346 241.715 247.279 255.514 247.187 255.514Z" fill="#E0E0E0"/>
<path d="M260.496 241.856H254.34V248.813H260.496V241.856Z" fill="#FAFAFA"/>
<path d="M220.63 194.187H211.508V207.399H220.63V194.187Z" fill="#E0E0E0"/>
<path d="M220.63 242.553H211.508V255.764H220.63V242.553Z" fill="#E0E0E0"/>
<path d="M35.7861 195.85C39.0386 194.175 42.8658 193.955 46.4729 194.554C48.411 194.872 50.4285 195.452 51.7491 196.908C53.0696 198.363 53.3142 200.924 51.8041 202.178C50.8992 202.923 49.6459 203.033 48.4721 203.021C45.6475 202.985 42.5173 202.489 40.2613 204.189C38.9713 205.161 38.1154 206.769 36.5931 207.246C35.0708 207.723 33.3895 206.824 32.5947 205.467C31.8594 204.051 31.6974 202.407 32.1423 200.875C32.3223 199.814 32.7447 198.808 33.3767 197.937C34.0086 197.065 34.8331 196.351 35.7861 195.85Z" fill="#EBEBEB"/>
<path d="M28.3396 181.476C30.3265 184.313 34.1904 183.378 35.9817 181.641C37.7731 179.905 38.5312 177.398 39.2159 175.008C40.7933 169.536 42.3767 163.795 41.209 158.226C40.9278 156.537 40.1852 154.958 39.0631 153.665C38.495 153.03 37.7708 152.554 36.9622 152.285C36.1536 152.016 35.2888 151.962 34.4533 152.13C32.503 152.644 31.2925 154.576 30.4182 156.367C27.8406 161.722 26.4913 167.585 26.4688 173.528C26.4688 176.298 26.7805 179.196 28.3396 181.476Z" fill="#EBEBEB"/>
<path d="M22.8861 185.548C25.0443 182.986 25.4539 179.257 24.4941 176.047C23.5342 172.837 21.3638 170.111 18.8633 167.879C15.9223 165.263 12.5002 163.245 8.78784 161.937C7.34904 161.355 5.80145 161.093 4.25144 161.166C3.47821 161.21 2.7275 161.443 2.06471 161.844C1.40191 162.244 0.847129 162.801 0.448686 163.465C-0.615106 165.489 0.405889 167.94 1.50636 169.946C3.4443 173.474 5.65612 176.845 8.12144 180.027C10.1084 182.583 12.4011 185.108 15.4029 186.263C18.4048 187.419 21.5717 187.284 23.1735 185.187" fill="#EBEBEB"/>
<path d="M28.2047 224.285C28.3109 223.864 28.3723 223.434 28.3881 223.001C28.4798 222.059 28.5899 220.879 28.7305 219.479C28.9057 217.747 29.169 216.025 29.5192 214.319C29.9785 212.234 30.6062 210.189 31.3961 208.206C32.1707 206.235 33.2182 204.383 34.508 202.703C35.5623 201.338 36.9045 200.221 38.4391 199.432C39.4828 198.918 40.6011 198.571 41.7528 198.405C42.1863 198.388 42.6167 198.325 43.0366 198.216C42.6039 198.168 42.1672 198.168 41.7344 198.216C40.5384 198.306 39.3684 198.61 38.2802 199.114C36.6596 199.879 35.2386 201.009 34.1289 202.416C32.7791 204.117 31.6911 206.011 30.9009 208.034C30.112 210.042 29.4983 212.114 29.0667 214.228C28.7341 215.955 28.5034 217.7 28.3759 219.455C28.2658 220.953 28.223 222.163 28.2047 223.001C28.1596 223.428 28.1596 223.858 28.2047 224.285Z" fill="#E0E0E0"/>
<path d="M28.4499 221.583C28.4862 221.381 28.4985 221.176 28.4866 220.971C28.4866 220.519 28.4866 219.95 28.4866 219.259C28.4866 217.774 28.4866 215.622 28.56 212.968C28.6945 207.662 29.1713 201.964 30.0334 193.899C30.8709 186.325 31.9898 177.515 33.1758 171.786C33.4265 170.484 33.6833 169.31 33.9278 168.283C34.1724 167.256 34.3497 166.363 34.5392 165.648C34.7287 164.933 34.8327 164.425 34.9427 163.985C35.0025 163.786 35.0374 163.581 35.0466 163.374C34.9545 163.552 34.8847 163.741 34.8388 163.936C34.7043 164.37 34.5392 164.908 34.3374 165.574C34.1357 166.241 33.8911 167.17 33.6344 168.191C33.3776 169.212 33.0841 170.386 32.809 171.688C31.3403 178.463 30.2362 185.312 29.5015 192.206C28.6211 200.276 28.2237 207.625 28.187 212.944C28.187 215.603 28.187 217.761 28.2787 219.247C28.3215 219.938 28.3582 220.507 28.3827 220.953C28.3797 221.165 28.4023 221.376 28.4499 221.583Z" fill="#E0E0E0"/>
<path d="M28.4865 207.411C28.5331 206.815 28.5331 206.216 28.4865 205.62C28.4192 204.47 28.2603 202.813 27.9363 200.777C27.5364 198.397 27.0016 196.042 26.3345 193.722C25.5634 190.868 24.5763 188.076 23.3815 185.371C21.336 180.387 18.4004 175.817 14.7183 171.884C14.0795 171.209 13.3974 170.575 12.6763 169.989C12.3645 169.72 12.065 169.457 11.8082 169.249L11.0501 168.705C10.5743 168.342 10.0692 168.018 9.53999 167.739C9.4544 167.855 11.6737 169.163 14.4738 172.141C18.0355 176.11 20.893 180.659 22.923 185.591C24.0971 188.278 25.0878 191.042 25.8882 193.863C26.5605 196.161 27.1175 198.491 27.5572 200.845C27.924 202.856 28.1686 204.513 28.2664 205.638C28.2925 206.234 28.3661 206.827 28.4865 207.411Z" fill="#E0E0E0"/>
<path d="M13.8374 230.252L15.2558 249.712H40.2549L41.6733 230.252H13.8374Z" fill="#EBEBEB"/>
<path d="M44.6511 222.585H11.4229V230.252H44.6511V222.585Z" fill="#EBEBEB"/>
<path d="M11.4229 248.966V251.087H12.988H44.1069V248.966H11.4229Z" fill="#E0E0E0"/>
<path d="M14.5162 254.597L12.9878 250.855H42.9146L41.1294 254.597H14.5162Z" fill="#E0E0E0"/>
<path d="M41.2092 236.61C41.1779 236.676 41.1389 236.737 41.093 236.794C40.9952 236.922 40.8668 237.087 40.7201 237.289L39.265 239.123L39.1977 239.208L39.1366 239.123L35.5601 234.177H35.7618L32.2403 239.16L32.1303 239.319L32.008 239.172L27.8323 234.201H28.0707L27.8445 234.495L24.109 239.172L23.9806 239.331L23.8706 239.166L20.3429 234.183H20.5508L16.2101 239.123L16.1367 239.215L16.0755 239.111L14.7183 236.861C14.5716 236.616 14.4615 236.415 14.3698 236.249C14.3237 236.181 14.2867 236.107 14.2598 236.029C14.317 236.088 14.3663 236.154 14.4065 236.225L14.7917 236.806L16.2162 239.05H16.0817L20.3613 234.048L20.4652 233.92L20.563 234.055L24.1212 239.019H23.8889L27.6122 234.33C27.6917 234.232 27.7711 234.134 27.8384 234.042L27.9607 233.89L28.083 234.036L32.2464 239.019H32.0141L35.5723 234.061L35.6762 233.914L35.774 234.061C37.1863 236.072 38.3846 237.778 39.2772 239.062H39.1488L40.665 237.228C40.8301 237.038 40.9646 236.885 41.0686 236.757C41.1118 236.705 41.1588 236.656 41.2092 236.61Z" fill="#F5F5F5"/>
<path d="M42.0219 230.123C42.0219 230.209 35.7553 230.282 28.0337 230.282C20.312 230.282 14.0454 230.209 14.0454 230.123C14.0454 230.038 20.3059 229.97 28.0337 229.97C35.7614 229.97 42.0219 230.038 42.0219 230.123Z" fill="#F5F5F5"/>
<path d="M217.341 9.50951L212.218 9.53723L212.356 35.0312L217.479 35.0035L217.341 9.50951Z" fill="#E0E0E0"/>
<path d="M181.1 9.57727L167.833 9.64905L167.91 23.7227L181.176 23.6509L181.1 9.57727Z" fill="#EBEBEB"/>
<path d="M194.305 9.50598L181.038 9.57776L181.114 23.6514L194.381 23.5796L194.305 9.50598Z" fill="#F5F5F5"/>
<path d="M167.849 13.5439C176.669 13.6173 185.493 13.5765 194.322 13.4216C194.359 13.4216 194.395 13.4068 194.421 13.3804C194.447 13.3541 194.462 13.3183 194.462 13.281C194.462 13.2437 194.447 13.2079 194.421 13.1816C194.395 13.1552 194.359 13.1404 194.322 13.1404C185.505 13.0915 176.665 13.1404 167.849 13.3054C167.822 13.3116 167.798 13.3268 167.781 13.3484C167.763 13.3701 167.754 13.397 167.754 13.4247C167.754 13.4524 167.763 13.4793 167.781 13.5009C167.798 13.5226 167.822 13.5377 167.849 13.5439Z" fill="#E0E0E0"/>
<path d="M183.67 23.4172L159.563 23.5476L159.626 35.0168L183.732 34.8864L183.67 23.4172Z" fill="#EBEBEB"/>
<path d="M207.658 23.2873L183.552 23.4177L183.614 34.887L207.72 34.7565L207.658 23.2873Z" fill="#F5F5F5"/>
<path d="M159.577 26.7496C175.589 26.9269 191.656 26.7496 207.674 26.5111C207.711 26.5111 207.747 26.4963 207.774 26.47C207.8 26.4436 207.815 26.4078 207.815 26.3705C207.815 26.3332 207.8 26.2975 207.774 26.2711C207.747 26.2447 207.711 26.2299 207.674 26.2299C191.662 26.1443 175.589 26.1504 159.577 26.505C159.545 26.505 159.514 26.5179 159.491 26.5408C159.468 26.5638 159.455 26.5949 159.455 26.6273C159.455 26.6597 159.468 26.6908 159.491 26.7138C159.514 26.7367 159.545 26.7496 159.577 26.7496Z" fill="#E0E0E0"/>
<path d="M243.953 35.0276H150.56V39.136H243.953V35.0276Z" fill="#E0E0E0"/>
<path d="M169.64 37.0023H165.85V51.0211H169.64V37.0023Z" fill="#E0E0E0"/>
<path d="M226.236 37.0023H222.445V51.0211H226.236V37.0023Z" fill="#E0E0E0"/>
<path d="M222.34 -0.000131829L217.217 0.0275879L217.407 35.0894L222.53 35.0617L222.34 -0.000131829Z" fill="#EBEBEB"/>
<path d="M230.341 6.52895L222.381 6.57202L222.535 34.9883L230.495 34.9452L230.341 6.52895Z" fill="#F5F5F5"/>
<path d="M230.29 12.0156C227.644 12.2025 224.988 12.2025 222.342 12.0156C224.988 11.8368 227.643 11.8368 230.29 12.0156Z" fill="#E0E0E0"/>
<path d="M230.289 10.8538C228.967 10.9876 227.637 11.0325 226.309 10.9883C224.981 11.0323 223.651 10.9874 222.329 10.8538C224.975 10.6669 227.631 10.6669 230.277 10.8538H230.289Z" fill="#E0E0E0"/>
<path d="M230.29 30.6807C227.644 30.8676 224.988 30.8676 222.342 30.6807C224.988 30.5019 227.643 30.5019 230.29 30.6807Z" fill="#E0E0E0"/>
<path d="M230.29 29.4884C227.643 29.6672 224.988 29.6672 222.342 29.4884C224.988 29.3015 227.644 29.3015 230.29 29.4884Z" fill="#E0E0E0"/>
<path d="M226.437 26.8841C226.364 26.8841 226.303 24.0168 226.303 20.483C226.303 16.9493 226.364 14.0758 226.437 14.0758C226.511 14.0758 226.578 16.9432 226.578 20.483C226.578 24.0229 226.517 26.8841 226.437 26.8841Z" fill="#E0E0E0"/>
<path d="M239.043 13.5194H230.38V34.9664H239.043V13.5194Z" fill="#EBEBEB"/>
<path d="M219.7 7.47295C220.514 7.47295 221.173 6.81328 221.173 5.99954C221.173 5.18579 220.514 4.52612 219.7 4.52612C218.886 4.52612 218.227 5.18579 218.227 5.99954C218.227 6.81328 218.886 7.47295 219.7 7.47295Z" fill="#E0E0E0"/>
<path d="M220.158 10.0529H219.247V30.913H220.158V10.0529Z" fill="#E0E0E0"/>
<path d="M270.064 255.618C270.064 255.709 211.299 255.777 138.833 255.777C66.3664 255.777 7.58887 255.709 7.58887 255.618C7.58887 255.526 66.342 255.459 138.833 255.459C211.323 255.459 270.064 255.532 270.064 255.618Z" fill="#263238"/>
<path d="M77.2072 31.2434C80.0903 34.7717 81.6515 39.1958 81.6213 43.7521C81.5908 46.3321 81.1139 49.175 82.6179 51.272C83.755 52.8616 85.8337 53.6625 86.7569 55.3866C87.8696 57.4592 86.9219 60.082 87.6067 62.3318C88.5727 65.5232 92.3143 66.8621 94.5336 69.3504C95.4796 70.4507 96.1415 71.7662 96.4612 73.1816C96.781 74.5971 96.7488 76.0693 96.3677 77.4695C95.9634 78.8638 95.2321 80.1414 94.2347 81.1963C93.2373 82.2511 92.0025 83.0527 90.633 83.5343C89.1707 84.1108 87.5395 84.0844 86.0966 83.4609C84.5987 82.715 83.6511 81.1805 82.9174 79.6826C81.444 76.7358 68.5012 60.8095 67.7676 57.5937" fill="#263238"/>
<path d="M67.792 27.4896C62.4975 26.6337 57.3986 30.1491 55.1793 35.0279C52.9601 39.9067 52.8867 45.4213 52.7338 50.8014C52.581 56.1815 52.1897 61.7572 49.4569 66.367C47.7206 69.2954 45.0305 71.8693 44.6087 75.238C44.2296 78.2582 45.7947 81.3028 45.2751 84.3047C44.8227 86.9214 42.8296 89.1957 42.9091 91.843C43.0069 95.0343 46.29 97.437 49.4752 97.5226C52.6605 97.6082 55.644 95.9392 58.1445 93.9583C62.2185 90.7236 65.4786 86.58 67.6636 81.8592" fill="#263238"/>
<path d="M59.0802 40.1082C58.9138 38.7764 59.0168 37.4247 59.3829 36.1335C59.7489 34.8422 60.3707 33.6376 61.2112 32.5912C62.0517 31.5449 63.0939 30.678 64.2759 30.0421C65.4578 29.4062 66.7555 29.0142 68.0918 28.8895C73.4291 28.3759 78.1795 32.356 78.9804 37.6627C79.6835 42.3153 80.2826 47.0106 80.2643 48.7164C80.1971 53.858 77.2074 55.8572 75.9847 56.4625C75.5448 56.6203 75.0901 56.733 74.6274 56.7987V56.8354L75.7646 62.7413C76.2843 66.6113 74.1261 70.0778 70.2622 70.6219C66.3983 71.166 63.3598 68.2131 62.7667 64.3431L59.0802 40.1082Z" fill="#FFBE9D"/>
<path d="M77.9285 39.9127C77.8429 40.035 77.1643 39.6742 76.2961 39.8026C75.428 39.931 74.8471 40.4568 74.7371 40.3651C74.6271 40.2734 74.7371 40.1206 75.0061 39.876C75.3404 39.5503 75.7677 39.3367 76.2289 39.2646C76.6813 39.1949 77.1441 39.272 77.5494 39.4847C77.8551 39.6804 77.9713 39.8638 77.9285 39.9127Z" fill="#263238"/>
<path d="M70.1882 41.7958C70.1027 41.918 69.424 41.5512 68.5498 41.6796C67.6755 41.808 67.1069 42.3399 66.9969 42.2482C66.8868 42.1565 66.9969 41.9975 67.2659 41.7591C67.6002 41.4334 68.0275 41.2197 68.4886 41.1477C68.9416 41.0832 69.4035 41.1623 69.8092 41.3739C70.1088 41.5634 70.231 41.7407 70.1882 41.7958Z" fill="#263238"/>
<path d="M73.3614 46.4605C73.7987 46.2502 74.2609 46.0961 74.737 46.002C74.957 45.947 75.1588 45.8736 75.1771 45.7146C75.1573 45.4913 75.0723 45.2787 74.9326 45.1033L74.0216 43.477C72.7561 41.2027 71.8085 39.3197 71.9002 39.2646C71.9919 39.2096 73.1229 41.0254 74.3457 43.2997C74.6575 43.8622 74.9571 44.4002 75.2261 44.9076C75.4037 45.1563 75.4901 45.4586 75.4706 45.7636C75.4504 45.847 75.4113 45.9246 75.3561 45.9904C75.3009 46.0561 75.2313 46.1082 75.1527 46.1426C75.0335 46.1948 74.9082 46.2317 74.7798 46.2527C74.318 46.3835 73.8412 46.4534 73.3614 46.4605Z" fill="#263238"/>
<path d="M74.5784 56.8048C74.5784 56.8048 71.2586 57.569 66.6855 55.6554C66.6855 55.6554 68.6603 59.9044 74.8902 58.3944L74.5784 56.8048Z" fill="#EB996E"/>
<path d="M69.7421 39.5153C69.6932 39.766 68.8067 39.7782 67.804 40.0534C66.8014 40.3285 66.0127 40.7198 65.8476 40.5302C65.7743 40.4385 65.8843 40.194 66.1839 39.9188C66.5873 39.5738 67.0639 39.3252 67.5776 39.1917C68.0914 39.0582 68.6288 39.0435 69.1491 39.1485C69.5526 39.2402 69.7421 39.3992 69.7421 39.5153Z" fill="#263238"/>
<path d="M77.2134 37.9868C77.0912 38.2069 76.4614 38.0908 75.74 38.1825C75.0186 38.2742 74.4256 38.5126 74.2544 38.3231C74.181 38.2314 74.2544 38.0235 74.4867 37.7973C74.8073 37.5131 75.2096 37.3376 75.6361 37.296C76.0572 37.2452 76.4837 37.3242 76.8588 37.5222C77.1523 37.6873 77.2685 37.8768 77.2134 37.9868Z" fill="#263238"/>
<path d="M68.2991 42.9206C68.3126 43.0152 68.3447 43.1062 68.3936 43.1883C68.4425 43.2704 68.5072 43.342 68.584 43.3988C68.6608 43.4557 68.7481 43.4968 68.8409 43.5196C68.9337 43.5425 69.0301 43.5467 69.1245 43.5319C69.2163 43.5214 69.3051 43.4926 69.3857 43.4474C69.4663 43.4022 69.5371 43.3415 69.594 43.2686C69.6509 43.1958 69.6927 43.1124 69.7171 43.0233C69.7414 42.9341 69.7478 42.841 69.7359 42.7494C69.7072 42.559 69.6042 42.3878 69.4495 42.2732C69.2948 42.1586 69.101 42.11 68.9105 42.138C68.8184 42.1478 68.7291 42.176 68.6481 42.2209C68.5671 42.2659 68.496 42.3267 68.4389 42.3997C68.3819 42.4727 68.3401 42.5564 68.3161 42.6459C68.2921 42.7354 68.2863 42.8288 68.2991 42.9206Z" fill="#263238"/>
<path d="M76.0091 41.2515C76.0378 41.4419 76.1407 41.6131 76.2954 41.7277C76.4502 41.8423 76.644 41.8909 76.8344 41.8629C76.9262 41.8523 77.015 41.8236 77.0956 41.7784C77.1762 41.7332 77.247 41.6724 77.3039 41.5996C77.3608 41.5267 77.4027 41.4433 77.427 41.3542C77.4514 41.265 77.4578 41.1719 77.4458 41.0803C77.4171 40.8899 77.3142 40.7187 77.1594 40.6041C77.0047 40.4895 76.8109 40.4409 76.6205 40.4689C76.5283 40.4787 76.4391 40.5069 76.3581 40.5519C76.2771 40.5968 76.2059 40.6576 76.1489 40.7306C76.0918 40.8036 76.0501 40.8874 76.0261 40.9769C76.002 41.0663 75.9963 41.1597 76.0091 41.2515Z" fill="#263238"/>
<path d="M74.7312 48.1478C74.4912 48.0732 74.2326 48.0848 74.0003 48.1809C73.768 48.2769 73.5767 48.4513 73.4595 48.6736C73.3476 48.8778 73.3022 49.1118 73.3296 49.3431C73.3569 49.5743 73.4558 49.7912 73.6124 49.9636C73.779 50.1273 73.9984 50.2264 74.2313 50.2432C74.4643 50.26 74.6956 50.1934 74.884 50.0553C75.1199 49.8406 75.2625 49.5422 75.2814 49.2239C75.3229 48.932 75.2531 48.6351 75.0858 48.3924C74.9999 48.2737 74.8773 48.1866 74.7369 48.1446C74.5966 48.1026 74.4463 48.1081 74.3093 48.1601" fill="#EB996E"/>
<path d="M78.301 33.4748C77.8211 31.5378 76.6236 29.8552 74.9507 28.7673C73.5813 27.7781 71.9547 27.2069 70.2675 27.1227C68.5699 27.0496 66.9124 27.6519 65.6578 28.7978C64.7675 29.6803 64.2583 30.8764 64.2394 32.1298L64.3372 31.2739C64.0803 31.9703 64.0803 32.7356 64.3372 33.432C64.4778 33.805 64.649 34.184 64.7957 34.557C65.2334 35.6347 66.0453 36.5182 67.0823 37.0453C67.5519 37.2972 68.0779 37.4255 68.6107 37.4182C68.8775 37.4128 69.1399 37.3493 69.3796 37.2321C69.6193 37.1149 69.8305 36.9468 69.9985 36.7396C70.3781 36.0769 70.4959 35.2961 70.3287 34.5509C70.7299 35.2873 71.3023 35.9163 71.9977 36.385C72.3528 36.6119 72.7752 36.7096 73.1938 36.6617C73.6124 36.6139 74.0018 36.4233 74.2965 36.1221C74.7978 35.5107 74.6022 34.5447 74.2965 33.7866C74.7695 34.5017 75.432 35.0711 76.2101 35.4312C76.4148 35.5487 76.6417 35.6224 76.8764 35.6476C77.1111 35.6729 77.3484 35.6492 77.5735 35.578C77.7534 35.4888 77.9107 35.3599 78.0335 35.201C78.1564 35.0421 78.2416 34.8575 78.2827 34.6609C78.3734 34.2714 78.3797 33.867 78.301 33.4748Z" fill="#263238"/>
<path d="M73.8816 35.1012C73.8266 35.1012 73.8388 34.3737 73.6004 33.2671C73.3253 31.7966 72.5861 30.4531 71.4911 29.4338C70.8893 28.8865 70.1633 28.4941 69.3758 28.2905C68.7308 28.1322 68.0592 28.1155 67.4071 28.2416C66.8062 28.3821 66.2321 28.6195 65.7075 28.9447C65.7075 28.9447 65.8115 28.7918 66.0805 28.5962C66.4665 28.3261 66.9 28.1312 67.3582 28.0215C68.0439 27.861 68.7574 27.861 69.443 28.0215C70.2879 28.2324 71.0659 28.653 71.7051 29.2443C72.8516 30.3056 73.6002 31.7274 73.8266 33.2732C73.8993 33.7302 73.9361 34.1922 73.9366 34.6549C73.9442 34.8058 73.9256 34.9568 73.8816 35.1012Z" fill="#455A64"/>
<path d="M130.188 106.381L106.681 97.0578C106.681 97.0578 94.6431 81.266 94.8938 80.9603L86.4385 90.2165L98.7271 106.84L127.211 113.516L132.102 112.159C131.026 106.968 130.188 106.381 130.188 106.381Z" fill="#FFBE9D"/>
<path d="M78.955 61.329L75.7514 60.1062L61.9221 61.8608V64.3063L61.5247 64.3553C58.5436 64.9891 55.6844 66.0997 53.0572 67.6445C50.5962 69.1467 48.6409 71.3507 47.4424 73.9731C46.244 76.5955 45.8573 79.5164 46.332 82.3603C46.8945 85.8573 47.9828 90.1064 50.0859 92.5641C54.1026 97.2656 57.7709 91.4575 57.7709 91.4575C57.7709 91.4575 60.2897 97.2044 60.143 99.9251C60.0207 102.205 59.0181 106.95 58.694 108.429C58.6807 108.488 58.6796 108.55 58.6907 108.609C58.7019 108.669 58.725 108.725 58.7588 108.776C58.7925 108.826 58.8362 108.869 58.887 108.902C58.9379 108.935 58.995 108.957 59.0548 108.967L88.2296 114.366L88.3702 107.231L87.4409 77.885L86.1264 66.489C86.1264 66.489 86.1692 61.0477 78.955 61.329Z" fill="#5AAAE0"/>
<path d="M85.6807 64.5939L96.8077 80.6669L87.851 91.5738L85.6807 64.5939Z" fill="#5AAAE0"/>
<path d="M88.0834 98.415C88.0434 98.0701 88.0291 97.7227 88.0406 97.3756C88.0406 96.6542 88.0406 95.7066 88.0039 94.5511C87.9498 91.4498 87.7273 88.3537 87.3375 85.2765C86.879 81.6694 86.1759 78.4475 85.644 76.1059L84.996 73.3547C84.902 73.0219 84.8325 72.6828 84.7881 72.3398C84.9271 72.6575 85.0376 72.9869 85.1182 73.3241C85.3078 73.9355 85.5645 74.8954 85.858 76.057C86.6474 79.0735 87.2477 82.1363 87.6554 85.2276C88.0485 88.3177 88.2404 91.43 88.2301 94.545C88.2301 95.7677 88.1996 96.7092 88.1629 97.3756C88.166 97.7237 88.1394 98.0714 88.0834 98.415Z" fill="#263238"/>
<path d="M60.6943 73.9785C60.6943 74.0274 59.8506 74.0212 58.4995 74.0885C56.7365 74.1841 54.9832 74.411 53.2539 74.7671C51.5251 75.1299 49.8251 75.6183 48.1673 76.2283C46.8956 76.6991 46.1314 77.0476 46.1069 76.9986C46.2637 76.8758 46.4364 76.775 46.6205 76.6991C46.9567 76.5157 47.4581 76.2833 48.0878 76.0204C51.3868 74.6581 54.9125 73.9281 58.4812 73.8684C59.1659 73.8684 59.7039 73.8684 60.1013 73.9051C60.3016 73.8986 60.5017 73.9234 60.6943 73.9785Z" fill="#FAFAFA"/>
<path d="M86.4634 81.3332C86.0162 81.4957 85.5496 81.5984 85.0756 81.6389C82.8148 81.9689 80.5244 82.0468 78.2465 81.8712C77.7708 81.863 77.2981 81.7931 76.8403 81.6633C77.3122 81.6214 77.7868 81.6214 78.2587 81.6633C79.1269 81.6633 80.3313 81.6633 81.658 81.6633C82.9847 81.6633 84.1829 81.5288 85.0511 81.4494C85.5174 81.3679 85.9901 81.329 86.4634 81.3332Z" fill="#FAFAFA"/>
<path d="M91.5683 74.0642C90.8944 74.8429 90.0869 75.4951 89.1839 75.9901C88.3315 76.5663 87.3802 76.9808 86.3777 77.2128C86.3411 77.1272 87.6005 76.6015 89.0189 75.6966C90.4373 74.7918 91.5072 73.9909 91.5683 74.0642Z" fill="#FAFAFA"/>
<path d="M87.0749 66.6114C85.146 68.3465 82.6883 69.3804 80.0991 69.546C80.0991 69.4481 81.7804 69.1914 83.7123 68.366C85.6443 67.5406 87.0138 66.5319 87.0749 66.6114Z" fill="#FAFAFA"/>
<path d="M87.6801 93.7808C87.5003 93.9017 87.3075 94.0022 87.1054 94.0804C86.7203 94.2638 86.1639 94.49 85.4547 94.7529C83.6122 95.415 81.7102 95.8982 79.7751 96.1958C77.84 96.4945 75.8804 96.603 73.9242 96.5198C73.1722 96.4892 72.567 96.4342 72.1512 96.3792C71.9336 96.3647 71.7182 96.3258 71.5093 96.263C71.5093 96.208 72.4386 96.263 73.9548 96.2997C77.8419 96.336 81.7092 95.7413 85.4058 94.5389C86.7998 94.0804 87.6618 93.7319 87.6801 93.7808Z" fill="#FAFAFA"/>
<path d="M87.9062 102.065C87.9062 102.065 87.8206 102.126 87.6433 102.218L86.8607 102.56C86.1882 102.878 85.1917 103.294 83.9445 103.783C82.6973 104.272 81.1872 104.743 79.4875 105.207C75.7925 106.202 71.9999 106.791 68.1771 106.962C66.4164 107.029 64.8329 107.023 63.5001 106.962C62.1673 106.901 61.0974 106.803 60.3576 106.699L59.5078 106.583C59.4077 106.576 59.309 106.555 59.2144 106.522C59.3136 106.506 59.4147 106.506 59.5139 106.522L60.3699 106.577C61.1096 106.638 62.204 106.699 63.5062 106.736C64.8084 106.773 66.4164 106.736 68.1649 106.675C69.9134 106.614 71.8331 106.393 73.8323 106.063C75.8315 105.733 77.7146 105.336 79.4142 104.908C81.1138 104.48 82.6178 103.997 83.865 103.551C85.1122 103.104 86.1271 102.731 86.8118 102.45L87.6066 102.138C87.7036 102.103 87.804 102.079 87.9062 102.065Z" fill="#FAFAFA"/>
<path d="M34.2825 232.037L30.9749 246.973L24.9407 258.033C24.8381 258.222 24.7753 258.429 24.7562 258.644C24.7371 258.858 24.7622 259.073 24.8298 259.277C24.8974 259.481 25.0062 259.669 25.1493 259.83C25.2925 259.99 25.467 260.119 25.6621 260.209C25.8886 260.313 26.1367 260.361 26.3856 260.35C26.6345 260.338 26.877 260.267 27.0927 260.142C29.8928 258.528 40.17 252.518 40.3473 251.412C40.5613 250.134 44.8837 235.889 44.8837 235.889L34.2825 232.037Z" fill="#5AAAE0"/>
<g opacity="0.6">
<path d="M25.6621 260.209L40.598 250.427L40.439 251.039C40.3083 251.584 39.9876 252.066 39.5342 252.396C38.3115 253.27 34.9061 255.618 27.1416 260.154C26.9187 260.285 26.6669 260.358 26.4088 260.368C26.1506 260.378 25.8941 260.323 25.6621 260.209Z" fill="white"/>
</g>
<g opacity="0.6">
<path d="M38.7207 244.87C38.505 244.96 38.3301 245.127 38.2297 245.338C38.1292 245.549 38.1103 245.789 38.1766 246.013C38.2582 246.232 38.4203 246.41 38.6295 246.512C38.8387 246.615 39.0792 246.633 39.3015 246.564C39.5324 246.468 39.7194 246.29 39.8257 246.064C39.932 245.837 39.95 245.58 39.8762 245.341C39.7679 245.124 39.5809 244.958 39.3536 244.875C39.1262 244.792 38.8757 244.799 38.6534 244.895" fill="white"/>
</g>
<path d="M30.6509 254.548C30.4043 253.998 30.0581 253.499 29.6299 253.075C29.1367 252.731 28.5828 252.484 27.9976 252.347C27.9976 252.304 28.2115 252.237 28.5723 252.274C29.0416 252.334 29.4834 252.529 29.8439 252.836C30.2072 253.131 30.4752 253.527 30.6142 253.973C30.7182 254.322 30.6876 254.548 30.6509 254.548Z" fill="#263238"/>
<path d="M29.1044 256.278C29.0188 256.327 28.6581 255.728 27.9428 255.319C27.4865 255.107 27.0168 254.925 26.5366 254.774C26.8006 254.688 27.0813 254.666 27.3556 254.709C27.6299 254.753 27.8899 254.861 28.114 255.025C28.9271 255.496 29.19 256.26 29.1044 256.278Z" fill="#263238"/>
<path d="M33.2436 252.481C32.7237 251.904 32.1595 251.369 31.5562 250.88C30.8915 250.474 30.1966 250.121 29.4775 249.822C30.3044 249.805 31.1104 250.083 31.7519 250.605C32.4591 251.03 32.9888 251.697 33.2436 252.481Z" fill="#263238"/>
<path d="M34.6306 248.025C34.5695 248.104 33.8297 247.56 32.7965 247.26C31.7633 246.961 30.8279 247.01 30.8218 246.906C31.5023 246.73 32.2177 246.741 32.8925 246.937C33.5672 247.134 34.1762 247.51 34.6551 248.025H34.6306Z" fill="#263238"/>
<path d="M35.713 243.666C35.1166 243.297 34.4728 243.011 33.7994 242.816C33.1056 242.721 32.4023 242.721 31.7085 242.816C31.7085 242.779 31.898 242.632 32.2893 242.516C32.8036 242.377 33.3435 242.359 33.8658 242.465C34.3881 242.571 34.8783 242.798 35.2973 243.128C35.6091 243.421 35.7375 243.641 35.713 243.666Z" fill="#263238"/>
<path d="M34.0259 241.99C34.0264 241.796 34.068 241.605 34.1482 241.428C34.3214 240.923 34.596 240.459 34.9552 240.064C35.1902 239.752 35.5207 239.524 35.8967 239.416C36.0247 239.395 36.1561 239.413 36.2738 239.468C36.3915 239.522 36.4902 239.611 36.557 239.722C36.6694 239.95 36.6933 240.211 36.6242 240.456C36.4675 240.946 36.1451 241.367 35.7124 241.646C35.2796 241.924 34.7634 242.044 34.2521 241.984C33.7479 241.912 33.2762 241.693 32.8965 241.353C32.5168 241.014 32.2461 240.57 32.1184 240.077C32.0891 239.951 32.0864 239.821 32.1106 239.695C32.1349 239.568 32.1854 239.449 32.259 239.343C32.3435 239.244 32.4572 239.175 32.5836 239.146C32.71 239.116 32.8426 239.127 32.9621 239.178C33.3077 239.35 33.6026 239.609 33.818 239.93C34.1421 240.354 34.3884 240.832 34.5456 241.342C34.62 241.524 34.6555 241.72 34.6495 241.917C34.403 241.258 34.0589 240.64 33.6285 240.083C33.4281 239.822 33.1682 239.612 32.8704 239.471C32.8049 239.443 32.732 239.437 32.6625 239.453C32.5931 239.47 32.5309 239.508 32.4852 239.563C32.4425 239.635 32.415 239.715 32.4045 239.798C32.394 239.881 32.4007 239.966 32.4241 240.046C32.5516 240.461 32.7937 240.831 33.1225 241.115C33.4513 241.398 33.8535 241.583 34.2827 241.648C34.7151 241.698 35.1518 241.6 35.5215 241.371C35.8912 241.141 36.1722 240.792 36.3186 240.382C36.3778 240.216 36.3778 240.035 36.3186 239.869C36.2839 239.806 36.2304 239.756 36.1657 239.725C36.101 239.694 36.0283 239.685 35.9578 239.698C35.6392 239.785 35.3553 239.969 35.1447 240.223C34.6757 240.746 34.2975 241.343 34.0259 241.99Z" fill="#263238"/>
<g opacity="0.3">
<path d="M33.8794 233.657L33.1641 237.081L43.9793 238.878L44.8841 235.889L34.2645 232.037L33.8794 233.657Z" fill="black"/>
</g>
<path d="M82.581 237.564L81.6884 249.498C81.6884 249.498 93.5246 254.389 93.5736 256.639L70.3413 255.74L70.9527 237.081L82.581 237.564Z" fill="#5AAAE0"/>
<g opacity="0.6">
<path d="M74.5662 248.214C74.3407 248.274 74.1452 248.416 74.0167 248.61C73.8883 248.805 73.8358 249.041 73.8692 249.272C73.9206 249.499 74.0567 249.698 74.2498 249.829C74.4428 249.959 74.6784 250.012 74.9085 249.975C75.1483 249.911 75.356 249.761 75.4915 249.553C75.627 249.346 75.6807 249.095 75.6422 248.85C75.5649 248.618 75.4009 248.424 75.1844 248.31C74.9679 248.197 74.7157 248.171 74.4806 248.238" fill="white"/>
</g>
<g opacity="0.6">
<path d="M70.3535 255.74L70.488 253.857L92.7115 255.404C92.7115 255.404 93.7325 255.893 93.5858 256.627L70.3535 255.74Z" fill="white"/>
</g>
<path d="M82.0802 249.394C82.0802 249.51 81.5055 249.541 80.9369 249.883C80.3683 250.225 80.0504 250.69 79.9465 250.641C79.8426 250.592 80.0382 249.944 80.7352 249.541C81.4321 249.137 82.1107 249.29 82.0802 249.394Z" fill="#263238"/>
<path d="M84.4769 250.513C84.4769 250.629 84 250.8 83.5965 251.265C83.193 251.73 83.0646 252.231 82.9484 252.225C82.8323 252.219 82.7895 251.571 83.303 251.002C83.8166 250.433 84.4769 250.391 84.4769 250.513Z" fill="#263238"/>
<path d="M85.748 253.466C85.644 253.466 85.5095 252.91 85.8213 252.304C86.1331 251.699 86.6773 251.467 86.7201 251.565C86.7629 251.662 86.4266 251.98 86.1759 252.482C85.9253 252.983 85.858 253.46 85.748 253.466Z" fill="#263238"/>
<path d="M81.9695 246.655C81.9206 246.753 81.4071 246.576 80.7468 246.594C80.0865 246.612 79.5974 246.796 79.524 246.698C79.4507 246.6 79.9642 246.215 80.7468 246.203C81.5294 246.19 82.0429 246.57 81.9695 246.655Z" fill="#263238"/>
<g opacity="0.3">
<path d="M82.4156 239.93L82.2566 242.058L70.8545 241.508L70.934 239.05L82.4156 239.93Z" fill="black"/>
</g>
<path d="M82.1221 244.24C81.7379 244.333 81.3355 244.316 80.9605 244.191C80.5366 244.103 80.1257 243.962 79.7377 243.77C79.5114 243.658 79.2928 243.531 79.0836 243.391C78.9559 243.312 78.8405 243.215 78.7412 243.103C78.6738 243.016 78.6372 242.908 78.6372 242.797C78.6372 242.687 78.6738 242.579 78.7412 242.492C78.8006 242.414 78.8777 242.352 78.966 242.311C79.0542 242.27 79.1512 242.25 79.2486 242.253C79.3958 242.259 79.5417 242.284 79.6827 242.327C79.9274 242.398 80.1648 242.492 80.3919 242.608C80.778 242.797 81.131 243.046 81.4374 243.348C81.957 243.867 82.1221 244.301 82.0854 244.32C82.0487 244.338 81.7858 243.99 81.2539 243.556C80.9417 243.311 80.6009 243.106 80.2391 242.944C80.0233 242.855 79.8029 242.777 79.5788 242.712C79.3342 242.639 79.1264 242.632 79.0591 242.712C78.9919 242.791 79.0591 242.773 79.0591 242.846C79.1324 242.927 79.2168 242.997 79.3098 243.054C79.5059 243.191 79.71 243.315 79.9211 243.427C80.2737 243.622 80.6443 243.781 81.0277 243.904C81.4 243.99 81.7658 244.102 82.1221 244.24Z" fill="#263238"/>
<path d="M81.9693 244.399C81.7662 244.056 81.6744 243.659 81.7065 243.262C81.7089 242.832 81.779 242.405 81.9143 241.996C82.0021 241.757 82.1105 241.526 82.2384 241.306C82.3071 241.154 82.4134 241.023 82.5472 240.925C82.681 240.826 82.8377 240.764 83.0026 240.743C83.107 240.75 83.2073 240.786 83.2917 240.848C83.3762 240.91 83.4413 240.994 83.4794 241.092C83.5326 241.229 83.5655 241.373 83.5773 241.52C83.6174 241.779 83.6174 242.043 83.5773 242.302C83.4955 242.734 83.3086 243.139 83.0331 243.482C82.5563 244.093 82.0794 244.185 82.0672 244.148C82.0549 244.112 82.434 243.886 82.8069 243.317C83.0209 242.993 83.1608 242.625 83.2165 242.241C83.2475 242.018 83.2475 241.792 83.2165 241.568C83.186 241.324 83.1004 241.116 83.0087 241.14C82.917 241.165 82.6908 241.312 82.5868 241.507C82.4675 241.703 82.3633 241.907 82.275 242.119C82.1335 242.488 82.043 242.874 82.006 243.268C81.9265 243.953 82.0305 244.399 81.9693 244.399Z" fill="#263238"/>
<path d="M58.5663 108.857C58.5663 108.857 54.898 109.022 52.4525 121.568C50.007 134.113 31.3662 235.767 31.3662 235.767L44.8837 235.889L70.3536 139.243L68.6601 238.897L82.3916 239.948C82.3916 239.948 92.6932 129.724 92.7849 123.31C92.9072 115.313 88.3158 107.225 88.3158 107.225L58.5663 108.857Z" fill="#263238"/>
<path d="M77.1466 107.788C77.2322 107.788 75.826 114.971 74.0102 123.793C72.1944 132.615 70.6538 139.756 70.5682 139.738C70.4826 139.72 71.8826 132.554 73.6984 123.732C75.5142 114.91 77.0793 107.769 77.1466 107.788Z" fill="#455A64"/>
<path d="M79.2496 109.579C79.2496 109.542 79.6164 109.432 80.0382 109.805C80.1581 109.914 80.2529 110.047 80.3162 110.196C80.3796 110.345 80.4099 110.505 80.4051 110.667C80.3898 110.871 80.3167 111.067 80.1944 111.232C80.0721 111.396 79.9056 111.523 79.7142 111.596C79.5276 111.681 79.3208 111.712 79.1176 111.685C78.9144 111.658 78.7229 111.574 78.5648 111.443C78.4466 111.333 78.3533 111.198 78.2911 111.048C78.2289 110.898 78.1993 110.737 78.2041 110.575C78.2041 110.013 78.5832 109.817 78.5893 109.854C78.4862 110.078 78.432 110.322 78.4303 110.569C78.4385 110.693 78.4714 110.815 78.5271 110.926C78.5827 111.037 78.66 111.136 78.7544 111.217C78.875 111.3 79.0146 111.352 79.1603 111.367C79.306 111.382 79.4532 111.36 79.5883 111.304C79.7235 111.247 79.8422 111.157 79.9336 111.043C80.0251 110.929 80.0863 110.793 80.1116 110.649C80.1206 110.525 80.1047 110.4 80.0648 110.283C80.0249 110.165 79.9618 110.057 79.8793 109.964C79.5797 109.615 79.2435 109.628 79.2496 109.579Z" fill="#455A64"/>
<path d="M78.6683 114.543C78.6683 114.507 79.0474 114.543 79.2797 115.051C79.3388 115.195 79.3656 115.351 79.3582 115.508C79.3508 115.664 79.3094 115.817 79.2369 115.955C79.1318 116.12 78.9837 116.253 78.8087 116.34C78.6336 116.427 78.4381 116.465 78.2433 116.449C78.0484 116.434 77.8616 116.365 77.7027 116.251C77.5438 116.137 77.419 115.982 77.3416 115.803C77.2928 115.655 77.2768 115.499 77.2947 115.345C77.3127 115.191 77.3642 115.042 77.4456 114.91C77.7329 114.451 78.1242 114.464 78.112 114.5C78.0998 114.537 77.8185 114.623 77.6412 115.014C77.5515 115.233 77.5515 115.479 77.6412 115.699C77.7051 115.82 77.7985 115.923 77.913 115.999C78.0274 116.074 78.159 116.12 78.2957 116.131C78.4323 116.142 78.5695 116.118 78.6945 116.062C78.8196 116.005 78.9283 115.918 79.0107 115.809C79.1259 115.6 79.1544 115.354 79.0902 115.124C78.9129 114.708 78.6378 114.586 78.6683 114.543Z" fill="#455A64"/>
<path d="M65.7131 109.701C65.688 109.911 65.6345 110.117 65.5541 110.312C65.3631 110.872 65.1238 111.414 64.8388 111.933C63.906 113.662 62.5587 115.133 60.9177 116.214C59.2767 117.295 57.3931 117.952 55.4359 118.126C54.848 118.177 54.2568 118.177 53.669 118.126C53.4619 118.119 53.2564 118.086 53.0576 118.028C53.0576 117.967 53.9808 118.071 55.442 117.887C57.3464 117.656 59.1712 116.987 60.773 115.931C62.3749 114.876 63.7101 113.463 64.6737 111.804C65.3891 110.569 65.6581 109.683 65.7131 109.701Z" fill="#455A64"/>
<path d="M92.0153 118.621C92.0153 118.621 91.8563 118.548 91.6057 118.376C91.2554 118.125 90.9281 117.842 90.6275 117.533C89.622 116.515 88.8375 115.301 88.3231 113.966C87.8086 112.631 87.5754 111.204 87.6379 109.774C87.6519 109.344 87.7071 108.916 87.8029 108.497C87.8702 108.197 87.913 108.038 87.9374 108.044C87.9619 108.05 87.8641 108.711 87.8641 109.781C87.8651 112.589 88.9086 115.297 90.7925 117.38C91.5078 118.169 92.0459 118.572 92.0153 118.621Z" fill="#455A64"/>
<path d="M139.439 118.976C139.641 118.487 139.586 118.682 136.345 116.53C136.345 116.53 140.992 119.587 140.509 118.132C140.091 117.581 139.58 117.107 138.999 116.732C140.221 117.453 140.931 117.533 141.145 117.239C141.511 116.732 138.852 114.794 137.586 113.92C138.743 114.747 139.957 115.493 141.218 116.151C141.97 116.383 141.609 115.503 141.102 114.861C140.594 114.219 136.657 110.429 135.599 109.298C135.499 109.211 135.418 109.105 135.363 108.984C135.307 108.864 135.278 108.733 135.278 108.601C135.278 108.468 135.307 108.337 135.363 108.217C135.418 108.097 135.499 107.99 135.599 107.904C137.495 106.681 138.326 104.731 138.302 104.089C138.281 103.944 138.214 103.81 138.112 103.705C138.01 103.601 137.878 103.532 137.734 103.507C137.59 103.483 137.442 103.504 137.311 103.569C137.18 103.634 137.073 103.739 137.006 103.869C136.527 104.463 135.97 104.99 135.349 105.434C134.867 105.809 134.326 106.101 133.747 106.296C133.074 106.516 129.767 106.332 129.058 105.972L126.802 113.62C126.802 113.62 134.988 117.447 136.541 118.193C138.448 119.098 139.298 119.349 139.439 118.976Z" fill="#FFBE9D"/>
<path d="M134.872 115.399C134.805 115.491 135.869 116.267 137.244 117.141C138.62 118.016 139.775 118.645 139.83 118.554C139.885 118.462 138.822 117.679 137.452 116.811C136.083 115.943 134.933 115.283 134.872 115.399Z" fill="#EB996E"/>
<path d="M135.642 113.901C135.581 113.993 136.669 114.885 138.088 115.9C139.506 116.915 140.68 117.667 140.741 117.582C140.802 117.496 139.72 116.597 138.295 115.582C136.871 114.568 135.709 113.816 135.642 113.901Z" fill="#EB996E"/>
<path d="M136.456 112.385C136.395 112.471 137.409 113.339 138.724 114.317C140.038 115.295 141.169 116.017 141.218 115.931C141.267 115.845 140.271 114.977 138.956 113.999C137.642 113.021 136.523 112.299 136.456 112.385Z" fill="#EB996E"/>
<path d="M53.1923 84.6836L59.196 85.0137C59.6213 86.6898 60.1899 88.3261 60.8956 89.9047C65.7316 81.5166 69.4549 70.2735 70.4086 65.7554C70.2741 65.3111 70.1091 64.8098 69.9134 64.2514C69.7669 63.4073 69.7919 62.5424 69.9868 61.7081C70.1518 60.7054 70.4331 59.3482 70.5126 58.7246C70.7755 56.8171 71.0811 56.5114 71.7353 56.7315C72.6401 57.025 71.3624 62.0933 72.1021 62.2033C72.5056 62.2583 72.9886 60.522 73.1354 59.0975C73.2821 57.673 73.9179 53.2956 74.3887 52.9838C75.0795 52.5558 75.6787 53.2344 75.5075 54.6528C75.3363 56.0712 75.1101 60.3692 75.8621 60.4242C76.6141 60.4792 77.2255 53.2161 77.2255 53.2161C77.2255 53.2161 77.1093 51.6388 77.9775 51.6754C79.5487 51.7427 78.3259 59.4032 78.1914 60.1308C78.0936 60.6321 78.9129 60.7421 78.9862 60.1797C79.0596 59.6172 79.4386 52.9104 81.0343 52.9654C82.2571 53.0082 80.0867 59.2748 80.7775 60.7299C81.4684 62.185 81.9453 55.7961 83.1191 55.8817C83.5532 55.9184 83.8772 56.004 83.0763 59.6172C82.2947 62.4904 81.3579 65.3191 80.2701 68.0908C78.436 78.1174 70.2497 110.19 57.4597 104.321C50.3066 101.038 46.9624 84.7569 46.9624 84.7569L53.1923 84.6836Z" fill="#FFBE9D"/>
<path d="M80.2825 68.1458C80.293 68.0701 80.3136 67.996 80.3436 67.9257C80.3987 67.7668 80.4659 67.5589 80.5576 67.3143C80.7594 66.7335 81.0345 65.9265 81.3952 64.8688C81.7559 63.8112 82.19 62.5273 82.6179 61.0111C82.838 60.2591 83.0215 59.4398 83.1865 58.5656C83.2721 58.1254 83.3516 57.673 83.4066 57.2083C83.4219 56.9783 83.4219 56.7475 83.4066 56.5175C83.4066 56.279 83.3516 56.0834 83.1621 56.0773C82.9725 56.0712 82.838 56.1873 82.7035 56.3891C82.5818 56.605 82.4814 56.8322 82.404 57.0677C82.2328 57.5507 82.0983 58.0642 81.9638 58.5839C81.8293 59.1036 81.707 59.6477 81.548 60.1979C81.4787 60.4994 81.3544 60.7854 81.1812 61.0416C81.1377 61.0918 81.0802 61.128 81.0161 61.1456C80.9758 61.1544 80.9339 61.1541 80.8937 61.1446C80.8535 61.135 80.8159 61.1166 80.7838 61.0905C80.7136 61.0261 80.6556 60.9495 80.6126 60.8643C80.548 60.7142 80.5048 60.5557 80.4843 60.3936C80.4564 59.1604 80.5796 57.9285 80.8511 56.7253C80.955 56.114 81.0651 55.5026 81.1445 54.8912C81.1812 54.5794 81.2179 54.2798 81.224 53.9497C81.2301 53.6195 81.1812 53.2711 81.0528 53.216C80.9244 53.161 80.6126 53.3322 80.4415 53.589C80.2725 53.8602 80.1389 54.152 80.0441 54.4571C79.8356 55.0958 79.6782 55.75 79.5733 56.4135C79.4571 57.086 79.3654 57.7708 79.286 58.4677C79.2554 58.8162 79.2187 59.1647 79.1881 59.5193L79.1392 60.0512C79.1457 60.1648 79.1272 60.2784 79.085 60.3841C79.0427 60.4897 78.9777 60.5848 78.8947 60.6626C78.79 60.7391 78.6637 60.7803 78.534 60.7803C78.4043 60.7803 78.278 60.7391 78.1733 60.6626C78.114 60.6234 78.0637 60.5721 78.0257 60.512C77.9878 60.4519 77.963 60.3845 77.9532 60.3141C77.9439 60.2492 77.9439 60.1833 77.9532 60.1185V59.9901L78.1182 58.9202C78.2222 58.1987 78.3078 57.4773 78.375 56.7437C78.4423 56.01 78.4973 55.2703 78.5095 54.5305C78.5453 53.7981 78.4711 53.0644 78.2894 52.354C78.2472 52.1737 78.1379 52.0163 77.9837 51.9138C77.91 51.8901 77.8307 51.8904 77.7571 51.9145C77.6835 51.9387 77.6194 51.9855 77.5741 52.0483C77.3762 52.4102 77.295 52.8245 77.3418 53.2344C77.2073 54.6711 77.0544 56.0834 76.8466 57.4712C76.7426 58.1621 76.6265 58.8529 76.4553 59.5315C76.4064 59.6966 76.3575 59.8678 76.2963 60.039C76.2382 60.2465 76.1163 60.4304 75.9478 60.5648C75.8734 60.6013 75.7887 60.6116 75.7076 60.5938C75.6265 60.5761 75.5539 60.5313 75.5015 60.4669C75.4269 60.3885 75.3705 60.2946 75.3365 60.1918C75.2705 60.0222 75.2234 59.8459 75.1959 59.666C75.0526 58.3356 75.0403 56.9943 75.1592 55.6615C75.2495 55.0402 75.2843 54.4121 75.2631 53.7846C75.2433 53.5168 75.1206 53.267 74.9207 53.0876C74.8738 53.0585 74.8214 53.0391 74.7668 53.0307C74.7122 53.0223 74.6564 53.025 74.6028 53.0387C74.5456 53.058 74.4904 53.0826 74.4378 53.1121C74.3827 53.161 74.3888 53.1121 74.3522 53.216C74.1311 53.7658 73.9692 54.3377 73.8692 54.9218C73.7469 55.5331 73.643 56.0895 73.5513 56.6642C73.4596 57.2389 73.374 57.8014 73.3006 58.3638C73.2272 58.9263 73.1906 59.4765 73.0805 60.0267C72.9855 60.5643 72.8423 61.0922 72.6525 61.6041C72.6022 61.7343 72.5429 61.861 72.4752 61.9832C72.3897 62.0993 72.3407 62.246 72.1084 62.3194C72.049 62.3303 71.9876 62.3234 71.9321 62.2994C71.8766 62.2755 71.8295 62.2356 71.7966 62.1849C71.7538 62.1143 71.7209 62.0382 71.6988 61.9587C71.6713 61.8258 71.655 61.6908 71.6499 61.5552C71.6499 60.5097 71.7905 59.556 71.8455 58.6328C71.8854 58.1915 71.8854 57.7475 71.8455 57.3061C71.8455 57.1105 71.7538 56.8782 71.6438 56.8354C71.5667 56.7976 71.482 56.7779 71.3962 56.7779C71.3103 56.7779 71.2256 56.7976 71.1486 56.8354C70.8919 57.111 70.733 57.4633 70.6961 57.838C70.6044 58.211 70.5678 58.59 70.5005 58.9507C70.2437 60.3936 69.9747 61.6408 69.8463 62.6557C69.7861 63.102 69.7861 63.5544 69.8463 64.0007C69.9319 64.3675 70.0603 64.6977 70.1276 64.9544C70.1948 65.2112 70.2621 65.3946 70.3049 65.5658C70.3276 65.6313 70.344 65.6989 70.3538 65.7676C70.3171 65.7084 70.2884 65.6447 70.2682 65.578L70.0603 64.9667C69.9747 64.7038 69.8463 64.4103 69.7424 64.0068C69.677 63.5486 69.677 63.0833 69.7424 62.6251C69.8586 61.5919 70.1031 60.3569 70.3538 58.9079C70.421 58.5472 70.4577 58.1682 70.5372 57.7769C70.581 57.5702 70.6361 57.3661 70.7023 57.1655C70.7634 56.9431 70.8967 56.7474 71.0813 56.6092C71.1924 56.5503 71.3163 56.5195 71.442 56.5195C71.5678 56.5195 71.6916 56.5503 71.8027 56.6092C71.9223 56.6845 72.0205 56.7893 72.0879 56.9135C72.1553 57.0377 72.1898 57.1771 72.1879 57.3184C72.2307 57.7779 72.2307 58.2405 72.1879 58.7001C72.1451 59.6294 71.9984 60.6014 72.0228 61.5919C72.0273 61.709 72.0416 61.8256 72.0656 61.9404C72.0656 62.0565 72.1512 62.1054 72.139 62.081C72.1268 62.0565 72.2551 61.9832 72.3041 61.8853C72.3643 61.7768 72.4174 61.6645 72.463 61.5491C72.6441 61.0535 72.7772 60.5417 72.8604 60.0206C72.9643 59.4887 73.001 58.9385 73.0744 58.3699C73.1478 57.8013 73.2211 57.2389 73.3128 56.6581C73.4045 56.0773 73.5085 55.4965 73.6246 54.9034C73.724 54.2841 73.8964 53.6787 74.1382 53.0999C74.187 53.0028 74.2609 52.9205 74.3522 52.8614C74.4334 52.8169 74.5196 52.782 74.6089 52.7575C74.7115 52.7282 74.8191 52.7212 74.9246 52.737C75.03 52.7529 75.1309 52.7911 75.2203 52.8492C75.3622 52.9619 75.4794 53.1025 75.5646 53.2624C75.6497 53.4222 75.7011 53.5979 75.7155 53.7785C75.7614 54.1111 75.7614 54.4485 75.7155 54.7812C75.685 55.093 75.6544 55.3925 75.636 55.7349C75.5169 57.0371 75.5292 58.348 75.6727 59.6477C75.6989 59.8021 75.7399 59.9536 75.795 60.1001C75.8133 60.1593 75.8447 60.2136 75.8867 60.2591C75.8867 60.2591 75.8867 60.2591 75.9173 60.2591C75.9173 60.3997 75.9173 60.2591 75.9173 60.3141C75.9173 60.3691 75.9173 60.3141 75.9173 60.2652C75.9936 60.163 76.0534 60.0496 76.0946 59.9289C76.1516 59.7781 76.2006 59.6192 76.2413 59.4521C76.4064 58.804 76.5164 58.1193 76.6204 57.4345C76.8282 56.0589 76.9811 54.6466 77.1095 53.216V53.2466C77.0551 52.7427 77.1644 52.2346 77.4213 51.7976C77.5193 51.6728 77.6538 51.5815 77.8061 51.5366C77.9584 51.4917 78.1209 51.4953 78.2711 51.547C78.3993 51.6181 78.5119 51.7143 78.6022 51.8299C78.6926 51.9454 78.7587 52.0779 78.7969 52.2195C78.9927 52.9713 79.073 53.7484 79.0353 54.5244C79.0353 55.2825 78.968 56.0284 78.9008 56.7681C78.8335 57.5079 78.7418 58.2354 78.6379 58.9568C78.5829 59.3237 78.5279 59.6783 78.4728 60.039C78.4239 60.2652 78.4361 60.2713 78.4728 60.3386C78.5153 60.3672 78.5653 60.3825 78.6165 60.3825C78.6677 60.3825 78.7177 60.3672 78.7602 60.3386C78.8335 60.2835 78.8458 60.1796 78.8641 59.9778L78.9069 59.4459L79.017 58.3883C79.0903 57.6913 79.1881 56.9943 79.3043 56.3157C79.4174 55.6341 79.5809 54.9618 79.7934 54.3043C79.9044 53.972 80.0542 53.6539 80.2397 53.3567C80.3407 53.1964 80.4739 53.059 80.631 52.9531C80.7181 52.8901 80.8191 52.8488 80.9255 52.8329C81.0319 52.8169 81.1405 52.8267 81.2424 52.8614C81.336 52.9192 81.4151 52.9978 81.4734 53.0911C81.5317 53.1844 81.5677 53.2899 81.5786 53.3994C81.6038 53.5715 81.6141 53.7453 81.6092 53.9191C81.6092 54.2554 81.5664 54.5794 81.5297 54.9034C81.4441 55.5148 81.328 56.1629 81.2179 56.7803C80.9553 57.9417 80.8281 59.1296 80.8388 60.3202C80.8561 60.4481 80.8889 60.5733 80.9367 60.6932C80.9588 60.7366 80.9855 60.7775 81.0161 60.8154C81.0161 60.8154 81.0161 60.8154 81.0161 60.7726C81.1534 60.5516 81.2545 60.3102 81.3157 60.0573C81.4747 59.5254 81.6031 58.9874 81.7437 58.4616C81.8698 57.9385 82.0228 57.4222 82.2022 56.9149C82.2869 56.6636 82.3975 56.4218 82.5324 56.1934C82.6053 56.069 82.7006 55.9591 82.8136 55.8694C82.8751 55.8161 82.9484 55.7783 83.0276 55.7594C83.1066 55.747 83.187 55.747 83.266 55.7594C83.3494 55.7677 83.4291 55.7981 83.4968 55.8476C83.5645 55.897 83.6178 55.9637 83.6512 56.0406C83.7022 56.1691 83.7292 56.3059 83.7307 56.4441C83.7354 56.6914 83.7211 56.9387 83.6879 57.1839C83.6328 57.6607 83.5411 58.1131 83.4555 58.5595C83.2782 59.4337 83.0826 60.2652 82.8442 61.005C82.3856 62.5212 81.9271 63.8051 81.5542 64.8505C81.1812 65.896 80.8633 66.6846 80.6493 67.2471C80.5454 67.5039 80.4598 67.7056 80.3987 67.8585C80.3713 67.9585 80.3323 68.0549 80.2825 68.1458Z" fill="#EB996E"/>
<path d="M46.9077 85.3744C48.0693 89.4767 50.3436 95.8044 52.783 102.493C52.8599 102.708 52.999 102.896 53.1828 103.033C53.3665 103.169 53.5866 103.248 53.8151 103.259C54.0436 103.27 54.2703 103.213 54.4664 103.095C54.6625 102.977 54.8193 102.804 54.9167 102.597L60.896 89.9475C60.896 89.9475 59.4531 79.5541 59.5754 79.927C59.6977 80.3 47.2379 81.2721 47.2379 81.2721L46.9077 85.3744Z" fill="#5AAAE0"/>
<path d="M60.3819 83.3387C60.3819 83.3876 59.636 83.6077 58.456 84.0602C56.9139 84.6455 55.4283 85.3699 54.0174 86.2244C52.6085 87.0829 51.2786 88.065 50.0435 89.159C49.0959 89.9966 48.5518 90.5713 48.5151 90.5346C48.4784 90.4979 48.619 90.3634 48.8513 90.0883C49.1788 89.706 49.5257 89.3407 49.8907 88.9939C51.0958 87.8335 52.4243 86.8085 53.8524 85.9371C55.2809 85.0763 56.7976 84.3713 58.3765 83.8339C58.8538 83.6695 59.3395 83.5308 59.8316 83.4182C60.0096 83.3625 60.1954 83.3357 60.3819 83.3387Z" fill="#FAFAFA"/>
<path d="M62.7542 86.4933C62.3657 86.1016 62.0287 85.662 61.7515 85.185C61.0375 84.0718 60.4237 82.8974 59.9174 81.6757C59.4107 80.4503 59.0158 79.1816 58.7374 77.8852C58.5949 77.3548 58.523 76.808 58.5234 76.2589C58.7058 76.7715 58.8508 77.2966 58.9575 77.8301C59.285 79.0961 59.6935 80.3398 60.1803 81.5534C60.6889 82.7607 61.2729 83.9348 61.9288 85.0688C62.2341 85.5255 62.5098 86.0013 62.7542 86.4933Z" fill="#263238"/>
<path d="M66.7407 30.4791C65.7034 32.1887 65.0604 34.1079 64.8584 36.0973C64.6564 38.0866 64.9005 40.096 65.5729 41.9791C66.1843 43.6604 67.1625 45.3172 66.9852 47.1024C66.8079 48.8876 65.414 50.6545 65.9031 52.4153C66.1965 53.4607 67.0891 54.2494 67.4376 55.2643C67.835 56.487 67.4376 57.777 67.2237 59.0304C66.7346 62.234 67.7617 65.4559 68.0123 68.684C68.263 71.912 67.4009 75.6964 64.5153 77.1026C63.641 77.5306 62.4977 77.6528 61.7702 76.9987C60.8409 76.1733 61.0977 74.6815 61.3545 73.4588C63.8855 61.2313 56.0661 49.2973 57.8513 36.923C58.1386 34.9422 59.2452 31.5796 60.6697 30.1979C62.0942 28.8162 66.0498 28.9752 67.3948 30.4425" fill="#263238"/>
<path d="M54.6963 65.951C54.6963 65.951 55.0692 65.5108 55.6195 64.6427C56.3916 63.4166 56.9325 62.0593 57.2152 60.6382C57.3996 59.6592 57.4633 58.6613 57.4047 57.6669C57.2977 56.5106 57.2549 55.3492 57.2763 54.1882C57.3128 53.5523 57.4299 52.9237 57.6248 52.3173C57.8482 51.6927 58.1307 51.0909 58.4685 50.5199C59.1532 49.3644 60.0152 48.2884 60.81 47.139C61.6262 46.0527 62.1939 44.8005 62.473 43.4708C62.6085 42.2182 62.5362 40.952 62.259 39.723C62.0277 38.5808 61.9373 37.4146 61.99 36.2504C62.0627 35.2335 62.2683 34.2305 62.6014 33.2669C63.0684 31.8687 63.8035 30.5749 64.7656 29.458C65.0212 29.1544 65.2991 28.8703 65.5971 28.6082C65.6916 28.5076 65.7984 28.4192 65.915 28.3453C65.915 28.3453 65.5054 28.7427 64.8573 29.5681C63.3138 31.484 62.4113 33.8365 62.2773 36.2932C62.2364 37.4384 62.337 38.5842 62.5769 39.7047C62.8685 40.9666 62.9471 42.2685 62.8092 43.5563C62.5194 44.9232 61.9352 46.2104 61.0974 47.3285C60.2965 48.4963 59.4344 49.5662 58.7619 50.6911C58.4311 51.2408 58.1567 51.8225 57.9427 52.4274C57.7493 53.0089 57.6321 53.6131 57.5942 54.2248C57.5672 55.3731 57.5998 56.522 57.692 57.6669C57.7406 58.6814 57.6625 59.698 57.4597 60.6932C57.1533 62.1337 56.5721 63.5017 55.7479 64.7221C55.5247 65.0521 55.2796 65.3666 55.0142 65.6637C54.9191 65.7708 54.8125 65.8672 54.6963 65.951Z" fill="#455A64"/>
<path d="M48.9004 66.8621C48.9496 66.7196 49.0131 66.5823 49.0899 66.4525C49.2428 66.1652 49.4384 65.7861 49.7013 65.3092C50.2148 64.3127 50.9791 62.8637 51.7311 61.0296C52.6509 58.8875 53.1611 56.5918 53.235 54.2617C53.2354 53.5903 53.1843 52.9199 53.0822 52.2564C52.9783 51.5716 52.8193 50.8808 52.7154 50.1594C52.5882 49.4131 52.6048 48.6495 52.7643 47.9095C52.971 47.1498 53.3962 46.4674 53.987 45.947C55.1364 44.9015 56.5242 44.2168 57.2457 42.9879C57.8707 41.7694 58.239 40.4356 58.3278 39.069C58.4572 37.8162 58.7406 36.5842 59.1715 35.4008C60.1406 32.8602 61.8672 30.6789 64.1175 29.1525C64.4763 28.9111 64.8499 28.6926 65.2363 28.4984C65.3668 28.4202 65.5064 28.3586 65.6521 28.3149C65.6521 28.3149 65.1018 28.6084 64.1909 29.2565C62.9069 30.1727 61.7954 31.309 60.9078 32.6129C60.2922 33.5067 59.7911 34.4741 59.416 35.4925C59.0041 36.6787 58.7372 37.9104 58.6212 39.1607C58.4378 40.463 58.2911 41.918 57.5085 43.208C56.726 44.498 55.2954 45.2317 54.201 46.2649C53.6433 46.7489 53.2413 47.387 53.0455 48.099C52.8969 48.7991 52.8824 49.5211 53.0027 50.2266C53.1005 50.9297 53.2534 51.6267 53.3573 52.3175C53.4631 52.997 53.5122 53.6841 53.504 54.3717C53.421 56.7446 52.8834 59.0794 51.9206 61.2497C51.2952 62.7164 50.5848 64.1454 49.793 65.5293L49.1449 66.4892C49.0768 66.6218 48.9949 66.7468 48.9004 66.8621Z" fill="#455A64"/>
<path d="M251.179 239.618C251.208 239.529 251.244 239.443 251.289 239.361C251.375 239.178 251.491 238.933 251.632 238.622C252.057 237.667 252.399 236.677 252.653 235.662C253.325 233.034 253.564 229.017 252.567 224.248C252.026 221.648 251.317 219.085 250.446 216.575C249.553 213.855 248.508 210.969 247.658 207.845C246.698 204.587 246.235 201.202 246.282 197.806C246.411 194.254 247.462 190.714 248.618 187.18C249.773 183.647 250.965 180.205 251.32 176.72C251.714 173.378 251.042 169.997 249.4 167.06C247.872 164.242 245.946 161.827 244.509 159.332C243.164 157.015 242.173 154.509 241.569 151.898C240.701 148.118 240.636 144.198 241.379 140.392C241.65 138.999 242.059 137.637 242.602 136.326C242.585 136.418 242.561 136.508 242.528 136.595L242.284 137.372C242.076 138.056 241.801 139.084 241.538 140.429C240.855 144.218 240.957 148.107 241.838 151.855C242.451 154.434 243.446 156.907 244.79 159.192C246.227 161.637 248.159 164.083 249.724 166.913C251.406 169.91 252.098 173.362 251.699 176.775C251.338 180.309 250.14 183.787 248.985 187.315C247.829 190.843 246.79 194.346 246.661 197.837C246.607 201.199 247.06 204.551 248.006 207.778C248.844 210.883 249.871 213.769 250.757 216.502C251.621 219.025 252.315 221.602 252.836 224.218C253.808 229.023 253.533 233.082 252.836 235.718C252.563 236.734 252.197 237.722 251.742 238.67L251.363 239.398C251.31 239.478 251.249 239.552 251.179 239.618Z" fill="#263238"/>
<path d="M246.466 161.796C246.466 161.796 243.544 152.436 248.789 146.958C248.83 146.914 248.882 146.882 248.94 146.866C248.998 146.85 249.059 146.85 249.116 146.866C249.174 146.883 249.226 146.915 249.266 146.959C249.307 147.004 249.334 147.058 249.346 147.117C249.627 148.664 249.975 153.371 246.466 161.796Z" fill="#5AAAE0"/>
<path d="M248.221 150.076C248.212 150.656 248.146 151.233 248.025 151.8C247.83 152.992 247.603 154.386 247.359 155.927C247.114 157.468 246.888 158.868 246.699 160.054C246.645 160.632 246.543 161.205 246.393 161.766C246.335 161.188 246.348 160.605 246.43 160.029C246.527 158.959 246.717 157.492 246.98 155.878C247.243 154.264 247.53 152.821 247.756 151.764C247.845 151.185 248.001 150.619 248.221 150.076Z" fill="#263238"/>
<path d="M249.902 183.873C249.902 183.873 251.694 174.232 258.896 171.847C258.952 171.827 259.014 171.824 259.072 171.837C259.131 171.85 259.185 171.879 259.228 171.921C259.271 171.962 259.302 172.016 259.317 172.074C259.331 172.132 259.33 172.193 259.311 172.251C258.835 173.736 256.945 178.059 249.902 183.873Z" fill="#5AAAE0"/>
<path d="M256.933 174.323C256.654 174.832 256.326 175.314 255.955 175.76L253.43 179.092L250.923 182.436C250.608 182.921 250.25 183.378 249.854 183.8C250.077 183.262 250.364 182.752 250.709 182.283C251.321 181.385 252.152 180.174 253.155 178.872C254.158 177.57 255.069 176.426 255.759 175.595C256.103 175.129 256.496 174.703 256.933 174.323Z" fill="#263238"/>
<path d="M247.957 208.041C247.957 208.041 246.869 198.295 253.068 193.924C253.116 193.887 253.174 193.864 253.234 193.858C253.294 193.852 253.355 193.864 253.409 193.891C253.463 193.919 253.508 193.962 253.539 194.014C253.569 194.066 253.584 194.126 253.582 194.187C253.564 195.758 253.007 200.441 247.957 208.041Z" fill="#5AAAE0"/>
<path d="M251.932 196.871C251.819 197.44 251.644 197.995 251.413 198.528L249.97 202.453C249.432 203.92 248.949 205.247 248.539 206.378C248.382 206.934 248.178 207.476 247.928 207.998C247.984 207.418 248.112 206.847 248.307 206.298C248.606 205.271 249.071 203.853 249.64 202.324C250.208 200.796 250.765 199.42 251.186 198.436C251.381 197.89 251.631 197.366 251.932 196.871Z" fill="#263238"/>
<path d="M253.381 232.361C253.381 232.361 252.648 222.579 258.994 218.434C259.043 218.4 259.102 218.38 259.162 218.377C259.222 218.374 259.282 218.388 259.335 218.417C259.387 218.447 259.431 218.49 259.46 218.542C259.49 218.595 259.504 218.655 259.501 218.715C259.428 220.286 258.706 224.951 253.381 232.361Z" fill="#5AAAE0"/>
<path d="M257.734 221.344C257.597 221.909 257.402 222.458 257.153 222.983C256.7 224.095 256.162 225.428 255.569 226.853C254.976 228.277 254.457 229.604 254.004 230.723C253.823 231.274 253.592 231.809 253.313 232.318C253.395 231.74 253.544 231.174 253.76 230.631C254.096 229.616 254.61 228.222 255.233 226.712C255.857 225.202 256.456 223.845 256.914 222.879C257.132 222.339 257.407 221.825 257.734 221.344Z" fill="#263238"/>
<path d="M242.26 153.573C242.26 153.573 233.591 149.025 233.401 141.45C233.401 141.39 233.416 141.332 233.446 141.281C233.476 141.229 233.52 141.187 233.571 141.158C233.623 141.129 233.682 141.115 233.742 141.117C233.801 141.119 233.859 141.137 233.909 141.168C235.199 142.061 238.781 145.142 242.26 153.573Z" fill="#5AAAE0"/>
<path d="M235.204 144.054C235.611 144.47 235.974 144.927 236.286 145.417C236.995 146.389 237.821 147.539 238.732 148.804L241.177 152.179C241.55 152.623 241.881 153.1 242.168 153.604C241.721 153.232 241.32 152.807 240.975 152.338C240.285 151.519 239.38 150.345 238.426 149.018C237.472 147.692 236.635 146.463 236.06 145.564C235.723 145.092 235.436 144.586 235.204 144.054Z" fill="#263238"/>
<path d="M251.596 173.669C251.596 173.669 242.646 169.664 242.016 162.102C242.011 162.042 242.022 161.983 242.049 161.929C242.076 161.876 242.116 161.831 242.167 161.799C242.218 161.768 242.276 161.751 242.335 161.75C242.395 161.75 242.454 161.765 242.505 161.796C243.844 162.609 247.604 165.458 251.596 173.669Z" fill="#5AAAE0"/>
<path d="M243.984 164.596C244.416 164.984 244.805 165.417 245.146 165.886L247.799 169.12L250.459 172.342C250.857 172.764 251.217 173.22 251.535 173.706C251.066 173.359 250.639 172.959 250.263 172.514C249.53 171.731 248.551 170.618 247.518 169.353C246.485 168.087 245.58 166.907 244.944 166.045C244.572 165.599 244.25 165.113 243.984 164.596Z" fill="#263238"/>
<path d="M246.429 196.1C246.429 196.1 240.316 188.458 243.171 181.427C243.193 181.372 243.231 181.324 243.279 181.289C243.327 181.254 243.384 181.232 243.443 181.227C243.502 181.222 243.562 181.234 243.616 181.26C243.669 181.287 243.714 181.328 243.745 181.378C244.595 182.705 246.631 186.96 246.429 196.1Z" fill="#5AAAE0"/>
<path d="M243.789 184.533C243.998 185.076 244.149 185.64 244.241 186.214C244.498 187.388 244.797 188.77 245.127 190.298C245.458 191.827 245.769 193.202 246.026 194.376C246.19 194.933 246.302 195.504 246.362 196.082C246.094 195.562 245.889 195.012 245.751 194.443C245.452 193.41 245.085 191.998 244.742 190.372C244.4 188.745 244.131 187.315 243.96 186.263C243.84 185.695 243.782 185.114 243.789 184.533Z" fill="#263238"/>
<path d="M252.544 222.457C252.544 222.457 243.661 218.305 243.16 210.737C243.154 210.676 243.165 210.616 243.192 210.561C243.219 210.507 243.26 210.461 243.312 210.429C243.364 210.398 243.423 210.381 243.484 210.381C243.544 210.381 243.604 210.399 243.655 210.431C244.969 211.269 248.68 214.185 252.544 222.457Z" fill="#5AAAE0"/>
<path d="M245.066 213.256C245.487 213.656 245.867 214.097 246.204 214.57L248.802 217.841L251.406 221.112C251.798 221.54 252.15 222.002 252.458 222.493C252.003 222.137 251.592 221.726 251.235 221.271C250.508 220.476 249.554 219.345 248.539 218.061C247.524 216.777 246.644 215.585 246.02 214.711C245.647 214.264 245.327 213.776 245.066 213.256Z" fill="#263238"/>
<path d="M270.218 183.916C270.218 183.916 270.218 183.989 270.218 184.13C270.218 184.27 270.218 184.502 270.218 184.741C270.218 185.352 270.157 186.129 270.114 187.119C270.004 189.21 269.839 192.126 269.649 195.611C269.038 199.157 267.204 203.088 264.758 206.909C262.979 209.722 261.09 212.277 259.5 214.655C258.05 216.743 256.746 218.929 255.6 221.197C254.841 222.73 254.227 224.331 253.766 225.978C253.613 226.559 253.491 227.017 253.423 227.329C253.394 227.492 253.351 227.651 253.295 227.806C253.297 227.641 253.318 227.477 253.356 227.317C253.399 226.999 253.491 226.534 253.631 225.941C254.043 224.265 254.627 222.637 255.374 221.081C256.51 218.794 257.812 216.594 259.268 214.496C260.87 212.1 262.722 209.538 264.495 206.744C266.91 202.942 268.708 199.072 269.386 195.581C269.631 192.102 269.833 189.192 269.998 187.101C270.077 186.11 270.144 185.322 270.193 184.729C270.193 184.484 270.236 184.276 270.254 184.117C270.234 184.052 270.221 183.984 270.218 183.916Z" fill="#263238"/>
<path d="M264.93 206.206C264.93 206.206 268.69 197.158 263.964 191.222C263.928 191.174 263.878 191.138 263.822 191.116C263.766 191.095 263.705 191.09 263.646 191.101C263.587 191.113 263.532 191.14 263.488 191.181C263.444 191.222 263.412 191.274 263.396 191.332C262.974 192.848 262.197 197.501 264.93 206.206Z" fill="#5AAAE0"/>
<path d="M264.245 194.383C264.407 194.941 264.507 195.515 264.544 196.094C264.679 197.158 264.826 198.632 264.942 200.264C265.058 201.896 265.113 203.376 265.113 204.452C265.15 205.033 265.115 205.616 265.009 206.188C264.903 205.618 264.852 205.038 264.856 204.458C264.777 203.235 264.679 201.847 264.575 200.288C264.471 198.729 264.373 197.317 264.288 196.119C264.216 195.543 264.202 194.961 264.245 194.383Z" fill="#263238"/>
<g opacity="0.3">
<path d="M264.93 206.206C264.93 206.206 268.69 197.158 263.964 191.222C263.928 191.174 263.878 191.138 263.822 191.116C263.766 191.095 263.705 191.09 263.646 191.101C263.587 191.113 263.532 191.14 263.488 191.181C263.444 191.222 263.412 191.274 263.396 191.332C262.974 192.848 262.197 197.501 264.93 206.206Z" fill="black"/>
</g>
<path d="M253.283 228.026C253.283 228.026 256.297 218.697 251.101 213.17C251.061 213.126 251.009 213.094 250.952 213.077C250.894 213.061 250.833 213.06 250.776 213.076C250.718 213.092 250.666 213.123 250.625 213.167C250.585 213.211 250.557 213.264 250.544 213.323C250.251 214.864 249.854 219.571 253.283 228.026Z" fill="#5AAAE0"/>
<path d="M251.639 216.276C251.851 216.819 251.998 217.385 252.079 217.963C252.299 219.009 252.562 220.47 252.813 222.084C253.063 223.698 253.234 225.171 253.326 226.241C253.405 226.819 253.416 227.404 253.357 227.984C253.211 227.422 253.113 226.85 253.063 226.272C252.886 225.08 252.678 223.686 252.452 222.139C252.226 220.592 252.006 219.198 251.84 218.006C251.716 217.437 251.649 216.858 251.639 216.276Z" fill="#263238"/>
<g opacity="0.3">
<path d="M253.283 228.026C253.283 228.026 256.297 218.697 251.101 213.17C251.061 213.126 251.009 213.094 250.952 213.077C250.894 213.061 250.833 213.06 250.776 213.076C250.718 213.092 250.666 213.123 250.625 213.167C250.585 213.21 250.557 213.264 250.544 213.323C250.251 214.863 249.854 219.571 253.283 228.026Z" fill="black"/>
</g>
<path d="M269.723 195.147C269.723 195.147 277.75 189.522 276.943 181.978C276.937 181.918 276.914 181.862 276.878 181.815C276.842 181.767 276.793 181.731 276.738 181.709C276.682 181.688 276.621 181.682 276.563 181.693C276.504 181.704 276.449 181.73 276.405 181.77C275.237 182.821 272.107 186.319 269.723 195.147Z" fill="#5AAAE0"/>
<g opacity="0.3">
<path d="M269.723 195.147C269.723 195.147 277.75 189.522 276.943 181.978C276.937 181.918 276.914 181.862 276.878 181.815C276.842 181.767 276.793 181.731 276.738 181.709C276.682 181.688 276.621 181.682 276.563 181.693C276.504 181.704 276.449 181.73 276.405 181.77C275.237 182.821 272.107 186.319 269.723 195.147Z" fill="black"/>
</g>
<path d="M275.489 184.796C275.329 185.356 275.106 185.896 274.822 186.404C274.364 187.37 273.697 188.691 272.921 190.133C272.144 191.576 271.398 192.854 270.824 193.759C270.541 194.267 270.198 194.739 269.803 195.165C270.018 194.627 270.284 194.111 270.598 193.624C271.172 192.567 271.851 191.332 272.597 189.956L274.59 186.288C274.84 185.763 275.141 185.263 275.489 184.796Z" fill="#263238"/>
<path d="M256.523 218.776C256.523 218.776 266.208 217.266 268.8 210.138C268.821 210.082 268.826 210.022 268.815 209.963C268.804 209.905 268.777 209.851 268.738 209.806C268.698 209.762 268.647 209.73 268.59 209.713C268.533 209.696 268.472 209.695 268.415 209.71C266.905 210.162 262.527 211.905 256.523 218.776Z" fill="#5AAAE0"/>
<g opacity="0.3">
<path d="M256.523 218.776C256.523 218.776 266.208 217.266 268.8 210.138C268.821 210.082 268.826 210.022 268.815 209.963C268.804 209.905 268.777 209.851 268.738 209.806C268.698 209.762 268.647 209.73 268.59 209.713C268.533 209.696 268.472 209.695 268.415 209.71C266.905 210.162 262.527 211.904 256.523 218.776Z" fill="black"/>
</g>
<path d="M266.257 212.027C265.865 212.455 265.426 212.838 264.949 213.17C264.111 213.842 262.931 214.735 261.605 215.689C260.278 216.643 259.037 217.456 258.12 218.018C257.642 218.352 257.124 218.625 256.579 218.831C257.013 218.444 257.482 218.099 257.979 217.798L261.391 215.389L264.796 212.944C265.249 212.587 265.739 212.28 266.257 212.027Z" fill="#263238"/>
<path d="M247.28 236.604L244.455 255.618H262.063L259.782 236.604H247.28Z" fill="#455A64"/>
<path d="M260.491 242.492C260.491 242.596 257.312 242.675 253.393 242.675C249.474 242.675 246.289 242.596 246.289 242.492C248.652 242.31 251.024 242.249 253.393 242.308C255.761 242.249 258.13 242.311 260.491 242.492Z" fill="#263238"/>
<path d="M260.833 244.008C260.833 244.112 257.55 244.191 253.497 244.191C249.443 244.191 246.16 244.112 246.16 244.008C246.16 243.904 249.443 243.824 253.497 243.824C257.55 243.824 260.833 243.904 260.833 244.008Z" fill="#263238"/>
<path d="M192.364 52.1459C192.364 52.1459 192.199 52.1459 191.881 52.1459C191.417 52.1184 190.952 52.1184 190.487 52.1459C188.692 52.2511 186.928 52.6647 185.272 53.3687C182.649 54.4685 180.365 56.2474 178.657 58.5226C177.604 59.9432 176.821 61.545 176.346 63.2485C175.276 67.3063 175.854 71.6226 177.954 75.2559C178.526 76.2618 179.225 77.1905 180.033 78.0193C180.848 78.8974 181.797 79.6403 182.845 80.2203C183.921 80.8256 185.139 81.1317 186.373 81.1068C187.645 81.0915 188.865 80.5983 189.79 79.725C190.238 79.2563 190.588 78.7041 190.822 78.0999C191.056 77.4957 191.169 76.8513 191.154 76.2035C191.144 74.8578 190.717 73.5481 189.931 72.4558C188.347 70.2243 185.78 68.7264 183.047 67.9194C180.213 67.1235 177.22 67.0814 174.365 67.7971C172.908 68.1762 171.503 68.7348 170.184 69.4601C168.851 70.2119 167.641 71.1623 166.595 72.2785C166.344 72.5658 166.057 72.8287 165.831 73.1467L165.14 74.0759C164.72 74.7308 164.344 75.413 164.015 76.1179C163.361 77.5493 162.914 79.0664 162.688 80.6238C162.244 83.7349 162.667 86.9082 163.911 89.7944C165.099 92.6145 167.169 94.974 169.811 96.5195C171.091 97.2512 172.521 97.6839 173.992 97.7851C175.435 97.8658 176.87 97.5214 178.119 96.7946C179.359 96.1095 180.339 95.0352 180.907 93.7378C181.443 92.4591 181.48 91.0258 181.011 89.721C180.528 88.4622 179.738 87.3441 178.712 86.4685C177.718 85.609 176.571 84.9434 175.331 84.506C172.914 83.7438 170.327 83.6992 167.885 84.3776C165.6 84.9968 163.501 86.166 161.771 87.783C160.196 89.2921 158.996 91.1494 158.268 93.2059C156.994 96.774 157.053 100.682 158.433 104.211C159.509 106.845 161.241 109.16 163.465 110.936C164.865 112.059 166.425 112.968 168.093 113.632C168.667 113.846 169.114 114.005 169.419 114.09L169.872 114.237C169.872 114.237 169.713 114.207 169.407 114.121C168.955 114 168.511 113.855 168.074 113.687C166.385 113.052 164.804 112.157 163.391 111.034C161.13 109.259 159.364 106.932 158.262 104.278C156.857 100.716 156.786 96.7673 158.06 93.157C158.789 91.0693 160.002 89.1838 161.6 87.6546C163.354 86.0052 165.484 84.8089 167.805 84.1697C170.299 83.474 172.941 83.5165 175.411 84.292C176.687 84.737 177.867 85.4195 178.89 86.3034C179.955 87.2077 180.775 88.3664 181.274 89.6721C181.777 91.0352 181.755 92.5365 181.213 93.8845C180.61 95.233 179.587 96.3504 178.296 97.0698C177.001 97.8246 175.514 98.1858 174.017 98.1091C172.509 98.0039 171.046 97.5565 169.737 96.8008C167.035 95.2336 164.914 92.8333 163.691 89.9595C162.421 87.0204 161.985 83.7882 162.431 80.6177C162.665 79.0288 163.122 77.481 163.789 76.0201C164.124 75.3002 164.508 74.6037 164.938 73.9353L165.647 72.9877C165.873 72.6637 166.167 72.3763 166.424 72.0951C167.494 70.9577 168.731 69.989 170.092 69.2216C171.442 68.4825 172.88 67.9157 174.371 67.5342C177.281 66.8051 180.331 66.8493 183.218 67.6626C186.006 68.4941 188.617 70.0164 190.261 72.3274C191.088 73.4653 191.537 74.8338 191.545 76.2402C191.575 77.6243 191.054 78.9636 190.096 79.9635C189.118 80.8817 187.83 81.3989 186.489 81.4124C185.205 81.4416 183.938 81.1226 182.821 80.4893C181.747 79.8971 180.777 79.1353 179.947 78.2333C179.129 77.3859 178.42 76.439 177.838 75.4149C175.701 71.7141 175.12 67.316 176.224 63.1874C176.713 61.4642 177.515 59.8456 178.59 58.4125C180.329 56.1201 182.652 54.3361 185.315 53.2464C186.984 52.556 188.762 52.1669 190.567 52.097C191.035 52.0661 191.505 52.0661 191.973 52.097L192.364 52.1459Z" fill="#263238"/>
<path d="M212.778 113.32H127.057V179.434H212.778V113.32Z" fill="#5AAAE0"/>
<path d="M127.057 113.32L142.892 128.091H227.158L212.778 113.32H127.057Z" fill="#5AAAE0"/>
<path d="M127.057 113.32L212.802 113.167H212.87L212.919 113.21L227.151 127.828L227.298 127.981L227.561 128.25H227.182L142.916 128.183H142.88L127.057 113.32L142.953 127.993H142.886L227.151 127.932L227.041 128.201L226.889 128.048L212.662 113.43L212.772 113.479L127.057 113.32Z" fill="#263238"/>
<path d="M152.809 143.809C152.345 143.826 151.905 144.025 151.586 144.362C151.266 144.699 151.092 145.149 151.1 145.613C151.109 146.078 151.299 146.521 151.631 146.846C151.962 147.172 152.408 147.354 152.873 147.354C153.338 147.354 153.784 147.172 154.115 146.846C154.447 146.521 154.637 146.078 154.646 145.613C154.654 145.149 154.48 144.699 154.16 144.362C153.841 144.025 153.402 143.826 152.937 143.809" fill="#263238"/>
<path d="M173.063 143.809C172.601 143.827 172.164 144.025 171.846 144.362C171.528 144.698 171.355 145.146 171.364 145.609C171.373 146.071 171.563 146.512 171.893 146.836C172.224 147.16 172.668 147.342 173.131 147.342C173.593 147.342 174.038 147.16 174.368 146.836C174.698 146.512 174.888 146.071 174.897 145.609C174.906 145.146 174.733 144.698 174.415 144.362C174.097 144.025 173.66 143.827 173.198 143.809" fill="#263238"/>
<path d="M173.18 159.632C172.826 158.281 172.252 156.998 171.48 155.835C170.622 154.591 169.519 153.534 168.24 152.729C166.697 151.705 164.896 151.135 163.045 151.084C161.193 151.033 159.364 151.504 157.767 152.442C156.448 153.178 155.29 154.172 154.362 155.364C153.526 156.485 152.883 157.737 152.46 159.069C152.465 158.97 152.482 158.871 152.509 158.776C152.568 158.5 152.643 158.229 152.736 157.963C153.071 156.981 153.56 156.058 154.185 155.23C155.106 153.982 156.279 152.941 157.627 152.173C159.265 151.195 161.148 150.703 163.055 150.755C164.963 150.807 166.816 151.401 168.399 152.466C169.7 153.303 170.813 154.403 171.664 155.694C172.244 156.557 172.684 157.506 172.966 158.507C173.041 158.778 173.1 159.054 173.143 159.332C173.164 159.431 173.177 159.531 173.18 159.632Z" fill="#263238"/>
<path opacity="0.5" d="M127.253 114.048L142.416 133.269H212.779V128.091H142.892L127.253 114.048Z" fill="black"/>
<path d="M195.874 179.287C195.788 179.287 195.715 167.788 195.715 153.61C195.715 139.432 195.788 127.932 195.874 127.932C195.959 127.932 196.039 139.426 196.039 153.61C196.039 167.794 195.966 179.287 195.874 179.287Z" fill="#263238"/>
<path d="M209.336 164.297H201.779V172.838H209.336V164.297Z" fill="#F5F5F5"/>
<path d="M127.058 113.32L109.462 128.091H127.058V113.32Z" fill="#5AAAE0"/>
<g opacity="0.4">
<path d="M127.057 113.32L109.462 128.091H127.057V113.32Z" fill="black"/>
</g>
<path d="M215.31 179.434H116.75V255.453H215.31V179.434Z" fill="#5AAAE0"/>
<path opacity="0.3" d="M215.31 179.434H116.75V255.453H215.31V179.434Z" fill="black"/>
<path d="M190.616 254.915C190.53 254.915 190.457 237.973 190.457 217.077C190.457 196.18 190.53 179.232 190.616 179.232C190.702 179.232 190.775 196.174 190.775 217.077C190.775 237.979 190.702 254.915 190.616 254.915Z" fill="#263238"/>
<path d="M206.952 238.151H199.396V246.692H206.952V238.151Z" fill="#F5F5F5"/>
<path d="M158.011 179.636H146.817V195.856H158.011V179.636Z" fill="#263238"/>
<path d="M158.011 239.007H146.817V255.226H158.011V239.007Z" fill="#263238"/>
<path d="M214.454 179.434H214.197H213.457L210.614 179.465L200.142 179.514L165.605 179.593L131.056 179.551L120.589 179.502L117.747 179.471H117.001H116.75H117.001H117.747L120.589 179.44L131.056 179.392L165.605 179.343L200.142 179.392L210.614 179.44L213.457 179.471H214.197L214.454 179.434Z" fill="#263238"/>
<path d="M45.5439 47.8237L34.8081 45.1825H34.8876C32.1156 46.9458 28.9101 47.9085 25.6253 47.9643C23.6806 47.9732 21.7456 47.6908 19.8845 47.1267C16.6125 46.0761 13.7097 44.1108 11.519 41.463C9.32843 38.8152 7.94161 35.5956 7.5225 32.1847C7.19332 29.6051 7.43564 26.9847 8.23229 24.5091C9.02893 22.0336 10.3604 19.7637 12.1323 17.8602C13.0637 16.8371 14.1076 15.9224 15.2442 15.1335C15.8189 14.7728 16.3935 14.3998 16.9927 14.088L17.9036 13.6478L18.3561 13.4277L18.8329 13.2566C21.2879 12.305 23.9213 11.9022 26.5485 12.0766C30.0693 12.3052 33.4438 13.571 36.2464 15.7143C39.0491 17.8576 41.1546 20.7826 42.2975 24.1207C42.9325 25.988 43.2668 27.9443 43.2879 29.9165C43.3032 33.1941 42.4125 36.4123 40.714 39.2155V39.1177C43.6975 44.5039 45.2015 47.2245 45.5378 47.8237C45.1893 47.2123 43.6303 44.5406 40.5428 39.2094V39.1605V39.1116C42.1803 36.3355 43.0261 33.1638 42.9883 29.941C42.96 28.0003 42.6215 26.0767 41.9857 24.243C40.8552 20.9732 38.7852 18.1096 36.0349 16.0107C33.2846 13.9118 29.9762 12.6709 26.524 12.4434C23.9486 12.2756 21.3676 12.672 18.9613 13.605L18.4967 13.7701L18.0504 13.9902L17.1578 14.4182C16.5464 14.73 16.0084 15.0907 15.4398 15.4453C14.3252 16.2131 13.2998 17.1031 12.3829 18.0986C10.6434 19.9673 9.336 22.1954 8.55313 24.6254C7.77026 27.0553 7.53112 29.6276 7.85264 32.1603C8.41945 36.8001 10.7999 41.027 14.4738 43.917C16.1163 45.2185 17.9804 46.2126 19.9762 46.8516C21.8039 47.4166 23.7062 47.7031 25.6192 47.7014C28.8646 47.6666 32.0377 46.738 34.7898 45.0175H34.8265H34.8937L45.5439 47.8237Z" fill="#263238"/>
<path d="M23.889 22.042L24.4332 31.0292C24.4549 31.3837 24.6055 31.718 24.8566 31.9691C25.1078 32.2202 25.4421 32.3708 25.7965 32.3926C26.1695 32.4136 26.5364 32.2911 26.8218 32.05C27.1072 31.8089 27.2895 31.4677 27.3311 31.0964L28.3276 22.0909C28.345 21.9298 28.3279 21.7668 28.2775 21.6128C28.2271 21.4588 28.1445 21.3173 28.0352 21.1976C27.926 21.0779 27.7925 20.9828 27.6437 20.9187C27.4949 20.8545 27.3342 20.8227 27.1721 20.8253H24.9895C24.8364 20.8299 24.6857 20.8654 24.5466 20.9296C24.4075 20.9939 24.2828 21.0855 24.18 21.1992C24.0773 21.3128 23.9985 21.446 23.9485 21.5909C23.8985 21.7357 23.8783 21.8891 23.889 22.042Z" fill="#5AAAE0"/>
<path d="M28.169 37.4121C28.0322 37.8226 27.7767 38.1834 27.435 38.4488C27.0932 38.7142 26.6804 38.8723 26.2487 38.9032C25.8171 38.9341 25.386 38.8364 25.0099 38.6223C24.6338 38.4083 24.3296 38.0875 24.1357 37.7006C23.9419 37.3138 23.867 36.8781 23.9207 36.4487C23.9744 36.0193 24.1541 35.6154 24.4372 35.2882C24.7203 34.9609 25.0941 34.7249 25.5113 34.61C25.9285 34.495 26.3704 34.5064 26.7812 34.6425C27.0543 34.7331 27.3069 34.8765 27.5245 35.0648C27.7421 35.253 27.9204 35.4823 28.0493 35.7395C28.1782 35.9968 28.2551 36.2769 28.2757 36.5639C28.2962 36.8509 28.26 37.1391 28.169 37.4121Z" fill="#5AAAE0"/>
</svg>
