<svg width="28" height="40" viewBox="0 0 28 40" fill="none" xmlns="http://www.w3.org/2000/svg">
<path d="M10.1701 0.839844C10.1701 0.839844 5.69504 4.02659 7.10149 10.6282C8.50793 17.2298 9.27508 21.5862 5.95076 24.6364C2.62644 27.6866 0.708557 29.8648 0.708557 34.5122V39.1596H5.43932V36.7466C5.39617 34.5018 6.16267 32.3165 7.5986 30.5905C8.13135 29.973 8.78692 29.4733 9.52351 29.1233C10.2601 28.7733 11.0615 28.5806 11.8767 28.5575C16.4081 28.5575 22.9559 28.9498 26.4526 21.4486C31.1241 11.4245 22.6169 0.837799 14.349 5.03156C14.349 5.03156 14.4339 2.07854 16.3948 0.841378L10.1701 0.839844Z" fill="#004776"/>
<path d="M16.8188 25.9552L13.7824 26.5484C12.8995 26.7209 11.9867 26.4708 11.315 25.8724L11.1817 25.7537C9.90671 24.6179 9.97509 22.6036 11.3242 21.5568L11.6452 21.3077C12.1095 20.9475 12.3811 20.393 12.3811 19.8054C12.3811 18.7553 13.2324 17.9039 14.2826 17.9039H15.6485C16.8763 17.9039 18.0004 17.2157 18.5587 16.1223L18.9318 15.3913C19.376 14.5213 20.1751 13.8863 21.123 13.6502C23.2536 13.1193 25.3162 14.7311 25.3162 16.9268V17.8668C25.3162 18.9337 24.9014 19.9589 24.1595 20.7256L21.6235 23.3466C20.3264 24.687 18.6495 25.5975 16.8188 25.9552Z" fill="#04D9B2"/>
</svg>
