<svg width="31" height="36" viewBox="0 0 31 36" fill="none" xmlns="http://www.w3.org/2000/svg">
<path d="M28.0129 21.2343C26.7251 23.5219 25.2666 25.8072 26.7612 29.3326L27.8494 31.8997C28.1387 32.5823 27.8166 33.3702 27.1329 33.6582C26.4491 33.946 25.6626 33.6248 25.3731 32.9422L24.2896 30.3873C24.2674 30.3346 24.2412 30.2831 24.2217 30.2278C21.4001 22.2585 27.6516 19.9172 27.6463 14.0512C27.6414 8.48217 23.3616 5.38686 18.2756 5.38686C17.2122 5.38686 16.0997 5.52446 15.0026 5.79453L15.1547 3.00164C16.1993 2.79612 17.2506 2.69141 18.2756 2.69141C24.7828 2.69141 30.3269 6.94247 30.3333 14.0512C30.3362 17.1106 29.1578 19.2004 28.0129 21.2343ZM7.46875 11.2535C7.41118 11.3717 7.35617 11.4915 7.30439 11.6131C6.51969 13.4548 7.07087 15.1032 6.61542 16.2047C5.82451 18.1173 4.43172 19.3521 3.46419 20.9918C3.98301 21.1478 4.37712 21.1719 4.87787 21.4891C6.07111 22.2445 5.42123 23.4258 5.34991 24.5113C5.62213 24.5308 5.89219 24.5567 6.16091 24.5922C6.64643 24.6563 7.11873 24.749 7.57702 24.8862C8.0047 25.0135 8.2482 25.4634 8.12065 25.8907C7.99337 26.3181 7.54318 26.5616 7.11536 26.4341C6.73056 26.3189 6.34347 26.2422 5.95219 26.1906C5.91997 26.1863 5.88761 26.1821 5.85511 26.1782C6.15929 26.6671 6.47304 27.1338 6.46805 28.3063C6.46589 28.8211 6.57847 29.1049 6.7675 29.2452C7.21797 29.5797 8.3144 29.6344 8.91533 29.6878C12.4546 30.0031 12.4821 30.005 13.9575 33.3683C14.2558 34.0482 13.943 34.8408 13.2621 35.1373C12.5812 35.4339 11.7892 35.1225 11.4919 34.4424C10.5474 32.2828 10.5508 32.5421 7.96492 32.2982C6.89923 32.1974 5.92968 31.9712 5.16573 31.4037C4.29474 30.7569 3.77457 29.7904 3.7809 28.2958C3.78427 27.4819 3.13049 27.3971 2.75081 25.671C2.58497 24.9168 2.66034 24.1878 2.75593 23.5869C1.78139 23.3031 0.969715 22.8472 0.726753 21.7457C0.569542 21.0325 0.753583 20.2993 1.14351 19.6373C2.06911 18.0669 3.57475 16.5261 4.12836 15.1833C4.19254 15.0274 3.91816 12.6951 4.82785 10.5599C5.00866 10.1358 5.21656 9.72795 5.44793 9.33605L7.46875 11.2535ZM17.5867 22.3019C17.5867 21.8553 17.9492 21.4933 18.396 21.4933C18.8431 21.4933 19.2052 21.8553 19.2052 22.3019C19.2052 22.4844 19.278 22.6292 19.3871 22.7229C19.4661 22.7907 19.5618 22.8372 19.6635 22.8578C19.7614 22.8776 19.8659 22.8725 19.9665 22.8383C20.1368 22.7805 20.3014 22.6268 20.4187 22.3527C20.9328 21.15 21.2437 20.8327 21.7157 20.3506C21.8898 20.1731 22.0911 19.9675 22.3408 19.6603C22.6622 19.2656 22.7987 18.821 22.7864 18.3991C22.779 18.1426 22.7142 17.8894 22.6012 17.6575C22.4898 17.4292 22.3337 17.2281 22.1419 17.0723C21.8495 16.8346 21.4652 16.6923 21.018 16.7053C20.704 16.7144 20.4035 16.8091 20.1478 16.9738C19.9022 17.132 19.7007 17.3553 19.5722 17.6289C19.3839 18.032 18.904 18.2058 18.5007 18.0174C18.0975 17.8291 17.9234 17.3495 18.1119 16.9466C18.3741 16.3867 18.7815 15.9338 19.2753 15.6155C19.7714 15.2958 20.3577 15.1121 20.9738 15.0942C21.8328 15.069 22.5812 15.3511 23.1599 15.8214C23.5407 16.131 23.8446 16.5181 24.0554 16.9499C24.2643 17.3782 24.3841 17.8576 24.3987 18.3549C24.4218 19.1423 24.175 19.9624 23.5928 20.6777C23.2928 21.0461 23.0642 21.2798 22.8665 21.4816C22.5246 21.8308 22.2993 22.0607 21.9042 22.9846C21.5867 23.7277 21.0616 24.171 20.485 24.3672C20.1095 24.4949 19.7146 24.5131 19.341 24.4371C18.971 24.3619 18.6232 24.1936 18.3377 23.9485C17.887 23.561 17.5867 22.9919 17.5867 22.3019ZM12.0221 16.8363C12.3904 16.5869 12.8914 16.683 13.1411 17.0511C13.3907 17.4192 13.2946 17.92 12.9261 18.1694C12.1864 18.6709 11.4153 18.877 10.6318 18.8121C9.85469 18.7477 9.0871 18.4144 8.34716 17.8372C7.9962 17.5633 7.93405 17.0569 8.20815 16.7063C8.48213 16.3556 8.98895 16.2933 9.33977 16.5673C9.82543 16.9462 10.3046 17.1627 10.7646 17.201C11.1834 17.2355 11.6057 17.1185 12.0221 16.8363Z" fill="#004776"/>
<path fill-rule="evenodd" clip-rule="evenodd" d="M11.52 0.75L12.177 4.02509L14.061 3.24519L13.5517 12.6005L12.1966 7.20206L11.1345 8.05621L9.20766 1.88608L11.52 0.75ZM4.57803 3.82941L7.03354 6.59022L8.14372 4.90187L11.3173 11.2897L8.3225 8.5194L7.64364 9.93768L3.31616 5.82704L4.57803 3.82941Z" fill="#039177"/>
</svg>
