<svg width="46" height="46" viewBox="0 0 46 46" fill="none" xmlns="http://www.w3.org/2000/svg">
<path d="M36.0129 26.2343C34.7251 28.5219 33.2666 30.8072 34.7612 34.3326L35.8494 36.8997C36.1387 37.5823 35.8166 38.3702 35.1329 38.6582C34.4491 38.946 33.6626 38.6248 33.3731 37.9422L32.2896 35.3873C32.2674 35.3346 32.2412 35.2831 32.2217 35.2278C29.4001 27.2585 35.6516 24.9172 35.6463 19.0512C35.6414 13.4822 31.3616 10.3869 26.2756 10.3869C25.2122 10.3869 24.0997 10.5245 23.0026 10.7945L23.1547 8.00164C24.1993 7.79612 25.2506 7.69141 26.2756 7.69141C32.7828 7.69141 38.3269 11.9425 38.3333 19.0512C38.3362 22.1106 37.1578 24.2004 36.0129 26.2343ZM15.4687 16.2535C15.4112 16.3717 15.3562 16.4915 15.3044 16.6131C14.5197 18.4548 15.0709 20.1032 14.6154 21.2047C13.8245 23.1173 12.4317 24.3521 11.4642 25.9918C11.983 26.1478 12.3771 26.1719 12.8779 26.4891C14.0711 27.2445 13.4212 28.4258 13.3499 29.5113C13.6221 29.5308 13.8922 29.5567 14.1609 29.5922C14.6464 29.6563 15.1187 29.749 15.577 29.8862C16.0047 30.0135 16.2482 30.4634 16.1206 30.8907C15.9934 31.3181 15.5432 31.5616 15.1154 31.4341C14.7306 31.3189 14.3435 31.2422 13.9522 31.1906C13.92 31.1863 13.8876 31.1821 13.8551 31.1782C14.1593 31.6671 14.473 32.1338 14.468 33.3063C14.4659 33.8211 14.5785 34.1049 14.7675 34.2452C15.218 34.5797 16.3144 34.6344 16.9153 34.6878C20.4546 35.0031 20.4821 35.005 21.9575 38.3683C22.2558 39.0482 21.943 39.8408 21.2621 40.1373C20.5812 40.4339 19.7892 40.1225 19.4919 39.4424C18.5474 37.2828 18.5508 37.5421 15.9649 37.2982C14.8992 37.1974 13.9297 36.9712 13.1657 36.4037C12.2947 35.7569 11.7746 34.7904 11.7809 33.2958C11.7843 32.4819 11.1305 32.3971 10.7508 30.671C10.585 29.9168 10.6603 29.1878 10.7559 28.5869C9.78139 28.3031 8.96971 27.8472 8.72675 26.7457C8.56954 26.0325 8.75358 25.2993 9.14351 24.6373C10.0691 23.0669 11.5747 21.5261 12.1284 20.1833C12.1925 20.0274 11.9182 17.6951 12.8279 15.5599C13.0087 15.1358 13.2166 14.7279 13.4479 14.336L15.4687 16.2535ZM25.5867 27.3019C25.5867 26.8553 25.9492 26.4933 26.396 26.4933C26.8431 26.4933 27.2052 26.8553 27.2052 27.3019C27.2052 27.4844 27.278 27.6292 27.3871 27.7229C27.4661 27.7907 27.5618 27.8372 27.6635 27.8578C27.7614 27.8776 27.8659 27.8725 27.9665 27.8383C28.1368 27.7805 28.3014 27.6268 28.4187 27.3527C28.9328 26.15 29.2437 25.8327 29.7157 25.3506C29.8898 25.1731 30.0911 24.9675 30.3408 24.6603C30.6622 24.2656 30.7987 23.821 30.7864 23.3991C30.779 23.1426 30.7142 22.8894 30.6012 22.6575C30.4898 22.4292 30.3337 22.2281 30.1419 22.0723C29.8495 21.8346 29.4652 21.6923 29.018 21.7053C28.704 21.7144 28.4035 21.8091 28.1478 21.9738C27.9022 22.132 27.7007 22.3553 27.5722 22.6289C27.3839 23.032 26.904 23.2058 26.5007 23.0174C26.0975 22.8291 25.9234 22.3495 26.1119 21.9466C26.3741 21.3867 26.7815 20.9338 27.2753 20.6155C27.7714 20.2958 28.3577 20.1121 28.9738 20.0942C29.8328 20.069 30.5812 20.3511 31.1599 20.8214C31.5407 21.131 31.8446 21.5181 32.0554 21.9499C32.2643 22.3782 32.3841 22.8576 32.3987 23.3549C32.4218 24.1423 32.175 24.9624 31.5928 25.6777C31.2928 26.0461 31.0642 26.2798 30.8665 26.4816C30.5246 26.8308 30.2993 27.0607 29.9042 27.9846C29.5867 28.7277 29.0616 29.171 28.485 29.3672C28.1095 29.4949 27.7146 29.5131 27.341 29.4371C26.971 29.3619 26.6232 29.1936 26.3377 28.9485C25.887 28.561 25.5867 27.9919 25.5867 27.3019ZM20.0221 21.8363C20.3904 21.5869 20.8914 21.683 21.1411 22.0511C21.3907 22.4192 21.2946 22.92 20.9261 23.1694C20.1864 23.6709 19.4153 23.877 18.6318 23.8121C17.8547 23.7477 17.0871 23.4144 16.3472 22.8372C15.9962 22.5633 15.934 22.0569 16.2082 21.7063C16.4821 21.3556 16.9889 21.2933 17.3398 21.5673C17.8254 21.9462 18.3046 22.1627 18.7646 22.201C19.1834 22.2355 19.6057 22.1185 20.0221 21.8363Z" fill="#004776"/>
<path fill-rule="evenodd" clip-rule="evenodd" d="M19.52 5.75L20.177 9.02509L22.061 8.24519L21.5517 17.6005L20.1966 12.2021L19.1345 13.0562L17.2077 6.88608L19.52 5.75ZM12.578 8.82941L15.0335 11.5902L16.1437 9.90187L19.3173 16.2897L16.3225 13.5194L15.6436 14.9377L11.3162 10.827L12.578 8.82941Z" fill="#039177"/>
</svg>
