<svg width="80" height="80" viewBox="0 0 80 80" fill="none" xmlns="http://www.w3.org/2000/svg">
<path d="M32.6406 25.7485C25.8668 25.7485 20.375 31.2403 20.375 38.0144C20.375 44.7885 25.8668 50.2803 32.6406 50.2803C39.4149 50.2803 44.9067 44.7885 44.9067 38.0144C44.9067 31.2407 39.4149 25.7485 32.6406 25.7485ZM37.2218 43.7106C36.3761 44.4359 35.3159 44.968 33.6068 45.0766L33.6059 46.6408L31.6159 46.6485L31.6191 45.0639C30.0086 45.0085 29.0988 44.4591 28.2158 43.6434C27.3324 42.8272 26.8143 41.6266 26.7962 40.1807L30.2908 40.172C30.3321 40.9068 30.5007 41.4999 30.7507 41.817C31.0633 42.2147 31.8308 42.3219 32.6138 42.3296C33.4468 42.3387 34.2966 42.2269 34.6347 41.9825C35.2241 41.5567 35.2409 40.5819 34.6942 40.1134C33.3968 39.0201 30.1113 39.2673 28.1817 37.5654C27.4201 36.8965 27.0388 36.0045 27.0347 34.892C27.0297 33.656 27.4792 32.6581 28.3808 31.8983C29.2815 31.1385 30.258 30.7518 31.7908 30.7113L31.7845 29.3799L33.7735 29.3817L33.779 30.6741C35.235 30.7072 36.1257 31.0876 36.9441 31.8228C37.7612 32.5563 38.0375 33.5419 38.0943 34.8593H34.9401C34.9055 34.2927 34.7978 33.9205 34.5534 33.6247C34.0039 32.9607 31.4791 32.953 30.8356 33.4561C30.3117 33.8655 30.278 34.7893 30.8143 35.2188C31.4537 35.7232 33.7272 36.1122 34.6751 36.4121C35.8776 36.792 36.7687 37.2487 37.3481 37.7777C38.1029 38.467 38.481 39.3968 38.4865 40.5724C38.4919 41.9366 38.0702 42.9831 37.2218 43.7106Z" fill="#008DEB"/>
<path d="M16.1022 10.0947H49.4114C52.7204 10.0947 55.4186 12.7935 55.4186 16.1027V42.5586C54.1671 42.3556 52.908 42.1932 51.6475 42.0498C51.0324 41.9795 50.4135 42.0035 49.8116 42.1147V16.1027C49.8116 15.8887 49.6249 15.7024 49.4114 15.7024H16.1022C15.8875 15.7024 15.7017 15.8882 15.7017 16.1027V57.8232C15.7017 58.037 15.8882 58.2237 16.1022 58.2237H32.6908C32.7499 60.8864 34.5092 63.3281 37.1946 64.1281C38.8305 64.6157 40.4842 65.3271 42.0238 66.1673H16.1022C12.7935 66.1673 10.0947 63.4683 10.0947 60.1593V16.1027C10.0947 12.793 12.7925 10.0947 16.1022 10.0947Z" fill="#001C2F"/>
<path d="M63.0523 48.8259L65.7748 62.5671L68.3911 68.8959H48.9072L48.0891 67.4948C47.1019 66.2163 45.531 64.9184 43.6993 63.7481C41.4599 62.3167 38.9023 61.1356 36.5493 60.4318C34.698 59.8829 33.6422 57.937 34.191 56.086C34.7398 54.2348 36.6858 53.179 38.5369 53.7279C39.7632 54.0944 41.0312 54.5631 42.2937 55.1133L36.0456 39.9941C35.3083 38.2067 36.1594 36.1596 37.9467 35.4223C39.7345 34.6849 41.7811 35.5358 42.5187 37.3234L45.9307 45.5794C46.4627 45.1777 46.994 44.7939 47.4896 44.4453C48.2148 43.935 49.0678 43.7329 49.8846 43.8261C51.8001 44.0446 53.6246 44.2972 55.4047 44.659C57.2553 45.0355 59.0636 45.5326 60.8814 46.2363C62.0421 46.6868 62.8297 47.6884 63.0523 48.8259Z" fill="#001C2F" stroke="#C2CED6" stroke-opacity="0.5" stroke-width="2"/>
</svg>
