<svg width="81" height="80" viewBox="0 0 81 80" fill="none" xmlns="http://www.w3.org/2000/svg">
<g clip-path="url(#clip0_1250_30994)">
<path d="M57.167 15H12.167V61.6667H57.167V15Z" fill="#004776"/>
<path d="M80.5003 43.3332H57.167V21.6665H66.002L80.5003 43.3332Z" fill="#008DEB"/>
<path d="M25.4997 68.3333C29.1816 68.3333 32.1663 65.3486 32.1663 61.6667C32.1663 57.9848 29.1816 55 25.4997 55C21.8178 55 18.833 57.9848 18.833 61.6667C18.833 65.3486 21.8178 68.3333 25.4997 68.3333Z" fill="#004776"/>
<path d="M80.5003 43.3335H57.167V61.6668H80.5003V43.3335Z" fill="#005E9D"/>
<path d="M68.8337 68.3333C72.5156 68.3333 75.5003 65.3486 75.5003 61.6667C75.5003 57.9848 72.5156 55 68.8337 55C65.1518 55 62.167 57.9848 62.167 61.6667C62.167 65.3486 65.1518 68.3333 68.8337 68.3333Z" fill="#004776"/>
<path d="M68.8337 55C65.152 55 62.167 57.985 62.167 61.6667H75.5003C75.5003 57.985 72.5153 55 68.8337 55Z" fill="#008DEB"/>
<path d="M25.4997 55C21.818 55 18.833 57.985 18.833 61.6667H32.1663C32.1663 57.985 29.1813 55 25.4997 55Z" fill="#008DEB"/>
<path d="M18.8333 15H0.5V21.6667H18.8333V15Z" fill="#004776"/>
<path d="M18.8337 28.3335H2.16699V35.0002H18.8337V28.3335Z" fill="#004776"/>
<path d="M18.8333 41.6665H5.5V48.3332H18.8333V41.6665Z" fill="#004776"/>
</g>
<defs>
<clipPath id="clip0_1250_30994">
<rect width="80" height="80" fill="white" transform="translate(0.5)"/>
</clipPath>
</defs>
</svg>
