<svg width="80" height="80" viewBox="0 0 80 80" fill="none" xmlns="http://www.w3.org/2000/svg">
<path d="M21.7711 45.3763C20.9811 45.3763 20.3407 44.7905 20.3407 44.0006C20.3407 43.2109 20.9811 42.5703 21.7711 42.5703H47.9501C48.7398 42.5703 49.3805 43.2109 49.3805 44.0006C49.3805 44.7905 48.7398 45.3763 47.9501 45.3763H21.7711ZM21.7694 39.769C20.9795 39.769 20.3389 39.1833 20.3389 38.3936C20.3389 37.6037 20.9795 36.963 21.7694 36.963H47.9485C48.7384 36.963 49.3791 37.6037 49.3791 38.3936C49.3791 39.1833 48.7384 39.769 47.9485 39.769H21.7694ZM21.7711 50.9833C20.9811 50.9833 20.3407 50.3978 20.3407 49.6079C20.3407 48.8179 20.9811 48.1775 21.7711 48.1775H31.5947C32.3846 48.1775 33.0253 48.8179 33.0253 49.6079C33.0253 50.3978 32.3846 50.9833 31.5947 50.9833H21.7711ZM21.7694 34.1617C20.9795 34.1617 20.3389 33.576 20.3389 32.7863C20.3389 31.9964 20.9795 31.3558 21.7694 31.3558H47.9485C48.7384 31.3558 49.3791 31.9964 49.3791 32.7863C49.3791 33.576 48.7384 34.1617 47.9485 34.1617H21.7694ZM38.1248 28.5545C37.3349 28.5545 36.6945 27.9688 36.6945 27.1791C36.6945 26.3892 37.3349 25.7485 38.1248 25.7485H47.9485C48.7384 25.7485 49.3791 26.3892 49.3791 27.1791C49.3791 27.9688 48.7384 28.5545 47.9485 28.5545H38.1248Z" fill="#008DEB"/>
<path d="M56.8221 12.8984H24.5801V23.1783C24.5801 23.9523 23.9523 24.5801 23.1783 24.5801H12.8986V67.1018H56.8221V59.4481L59.6257 58.8657V68.5036C59.6257 69.2776 58.9977 69.9054 58.2239 69.9054H11.4965C10.7225 69.9054 10.0947 69.2776 10.0947 68.5036V23.2253V23.1783C10.0947 22.9307 10.159 22.6982 10.2716 22.4963C10.2884 22.4662 10.3066 22.4361 10.3256 22.4073C10.3447 22.3781 10.3657 22.3491 10.3872 22.3213C10.4272 22.2699 10.4709 22.2209 10.5176 22.1753L22.1756 10.5174C22.2209 10.4709 22.2697 10.4272 22.3213 10.3872C22.3489 10.3657 22.3776 10.3452 22.4068 10.326C22.4356 10.3071 22.4657 10.2886 22.4959 10.2718C22.6975 10.1592 22.9307 10.0947 23.1783 10.0947H23.1886H58.2239C58.9979 10.0947 59.6257 10.7225 59.6257 11.4965V45.6917L56.8221 46.2877V12.8984ZM62.0709 48.9497L56.5031 50.1328C55.0523 50.4408 53.6215 50.4571 52.1914 50.4721C50.8382 50.4868 49.484 50.5015 48.1514 50.7847C46.7975 51.0721 45.4232 51.4865 44.0487 51.9779C42.7488 52.4423 41.457 52.9731 40.1849 53.5301C40.0515 53.6673 39.9643 53.7526 39.6585 53.7526C39.3529 53.7526 38.9249 53.4203 38.9249 53.0187C38.9249 52.6171 39.2422 52.2958 39.6382 52.2853C40.9465 51.7122 42.2696 51.1683 43.5913 50.6959C45.0094 50.1889 46.4395 49.7588 47.8691 49.4553C49.3196 49.1471 50.7506 49.1312 52.1807 49.1161C53.5339 49.1016 54.8883 49.0866 56.2211 48.8035L61.7889 47.6201L62.0709 48.9497ZM62.1975 49.5441L63.5928 55.6534C53.0124 57.8603 42.4212 60.0348 31.8499 62.2824L30.5712 56.2672C39.1305 54.4467 51.8902 51.7354 62.1975 49.5441ZM29.8916 56.412C27.7763 57.7594 25.6745 59.0993 23.5577 60.445C23.3727 60.563 23.3094 60.7663 23.3475 60.9464C23.3853 61.1266 23.5264 61.2871 23.7435 61.3191C26.2212 61.6873 28.694 62.0585 31.1705 62.4272C30.7441 60.4222 30.3177 58.4171 29.8916 56.412ZM63.5145 50.0062L67.1111 49.2418C70.5052 48.5205 70.7787 53.2664 68.088 53.8371L64.4914 54.6018L63.5145 50.0062ZM21.7765 14.8805L14.8805 21.7763H21.7765V14.8805Z" fill="#001C2F"/>
</svg>
