<svg width="60" height="60" viewBox="0 0 60 60" fill="none" xmlns="http://www.w3.org/2000/svg">
<path d="M59.9072 4.76708V55.7008C59.9072 58.0055 58.0439 59.9055 55.7271 59.9055H21.8237C19.5058 59.9055 17.6182 58.0179 17.6182 55.6999V4.76615C17.6182 3.95962 18.2614 3.33182 19.1438 3.36967L25.1066 3.36991V1.49657C25.1066 0.72252 25.7344 0.0947266 26.5084 0.0947266C27.2827 0.0947266 27.9103 0.72252 27.9103 1.49657V3.37014L33.2847 3.37038V1.49657C33.2847 0.72252 33.9123 0.0947266 34.6866 0.0947266C35.4606 0.0947266 36.0884 0.72252 36.0884 1.49657V3.37038L41.4626 3.37061V1.49657C41.4626 0.72252 42.0902 0.0947266 42.8645 0.0947266C43.6385 0.0947266 44.2663 0.72252 44.2663 1.49657V3.37061L49.6406 3.37084V1.49657C49.6406 0.72252 50.2681 0.0947266 51.0424 0.0947266C51.8167 0.0947266 52.4442 0.72252 52.4442 1.49657V3.37061H58.5054C59.2766 3.37061 59.9072 3.99607 59.9072 4.76708ZM44.2666 6.16356V8.39623C46.3929 9.78289 45.418 13.1207 42.8647 13.1207C40.3113 13.1207 39.3363 9.78289 41.4629 8.39623V6.16332L36.0887 6.16309V8.39623C38.215 9.78289 37.24 13.1207 34.6868 13.1207C32.1331 13.1207 31.1584 9.78289 33.285 8.39623V6.16309L27.9105 6.16285V8.39623C30.0369 9.78289 29.0621 13.1207 26.5087 13.1207C23.9554 13.1207 22.9805 9.78289 25.1068 8.39623V6.16285L20.4219 6.16262V55.6999C20.4219 56.4702 21.0532 57.1015 21.8237 57.1015H55.7271C56.5028 57.1015 57.1035 56.4793 57.1035 55.7008V6.16356H52.4445V8.39623C54.5711 9.78289 53.5959 13.1207 51.0426 13.1207C48.4894 13.1207 47.5142 9.78289 49.6408 8.39623V6.16356H44.2666Z" fill="#001C2F"/>
<path d="M27.4052 49.8599C26.6309 49.8599 26.0034 49.2321 26.0034 48.4579C26.0034 47.6838 26.6309 47.056 27.4052 47.056H49.4953C50.2696 47.056 50.8972 47.6838 50.8972 48.4579C50.8972 49.2321 50.2696 49.8599 49.4953 49.8599H27.4052ZM28.4206 42.7091L25.8396 40.7477C24.2887 39.5692 25.9419 38.5274 26.7742 38.9954L28.6433 40.0468L30.7461 36.5422C31.8042 34.7786 33.14 35.9772 32.6147 37.0048L29.8127 42.4843C29.5655 42.968 28.8531 43.0378 28.4206 42.7091ZM36.7518 41.4489C35.9775 41.4489 35.35 40.8211 35.35 40.0468C35.35 39.2727 35.9775 38.6449 36.7518 38.6449H49.4953C50.2696 38.6449 50.8972 39.2727 50.8972 40.0468C50.8972 40.8211 50.2696 41.4489 49.4953 41.4489H36.7518ZM28.4206 34.298L25.8396 32.3366C24.2887 31.1581 25.9419 30.1163 26.7742 30.5843L28.6433 31.6357L30.7461 28.1311C31.8042 26.3675 33.14 27.5661 32.6147 28.5937L29.8127 34.0733C29.5655 34.5569 28.8531 34.6268 28.4206 34.298ZM36.7518 33.0375C35.9775 33.0375 35.35 32.41 35.35 31.6357C35.35 30.8616 35.9775 30.2338 36.7518 30.2338H49.4953C50.2696 30.2338 50.8972 30.8616 50.8972 31.6357C50.8972 32.41 50.2696 33.0375 49.4953 33.0375H36.7518ZM28.4206 25.8869L25.8396 23.9255C24.2887 22.747 25.9419 21.7052 26.7742 22.1732L28.6433 23.2246L30.7461 19.72C31.8042 17.9565 33.14 19.155 32.6147 20.1826L29.8127 25.6622C29.5655 26.1458 28.8531 26.2157 28.4206 25.8869ZM36.7518 24.6265C35.9775 24.6265 35.35 23.9989 35.35 23.2246C35.35 22.4506 35.9775 21.8228 36.7518 21.8228H49.4953C50.2696 21.8228 50.8972 22.4506 50.8972 23.2246C50.8972 23.9989 50.2696 24.6265 49.4953 24.6265H36.7518Z" fill="#008DEB"/>
<path d="M12.7713 48.4329L11.5272 53.172C11.4728 53.3788 11.2562 53.5133 11.0312 53.5519C10.806 53.5909 10.5623 53.5332 10.4359 53.3594L7.72363 49.2981C8.85303 48.2792 11.291 47.7671 12.7713 48.4329Z" fill="#001C2F"/>
<path d="M13.7721 45.5062L7.68596 10.992L5.56146 9.70605L1.64984 10.3958L0.0947266 12.3411L6.17898 46.8456C6.48481 45.7162 6.89742 45.1048 7.81703 45.3702C8.95136 44.1151 10.1555 44.1366 11.4983 44.7211C12.224 44.2625 13.1483 44.2957 13.7721 45.5062Z" fill="#001C2F"/>
</svg>
