<svg width="136" height="32" viewBox="0 0 136 32" fill="none" xmlns="http://www.w3.org/2000/svg">
<path d="M16.5512 2.08251C16.3098 1.98635 16.0404 1.98635 15.799 2.08251L3.7324 6.87955L16.1751 11.8253L28.6178 6.87955L16.5512 2.08251ZM30.3283 8.36469L17.186 13.5898V29.5103L30.3283 24.2852V8.36469ZM15.1642 29.5123V13.5878L2.02189 8.36469V24.2872L15.1642 29.5123ZM15.0489 0.215537C15.7719 -0.0718455 16.5783 -0.0718455 17.3013 0.215537L31.7153 5.94707C31.9027 6.02172 32.0634 6.15043 32.1765 6.31663C32.2897 6.48282 32.3502 6.67888 32.3502 6.87955V24.2872C32.3499 24.6888 32.2287 25.081 32.002 25.4135C31.7753 25.7459 31.4536 26.0032 31.0784 26.1521L16.5512 31.9279C16.3098 32.024 16.0404 32.024 15.799 31.9279L1.27379 26.1521C0.898226 26.0035 0.576122 25.7463 0.349063 25.4139C0.122004 25.0814 0.000417175 24.689 0 24.2872V6.87955C4.69886e-05 6.67888 0.0605429 6.48282 0.173694 6.31663C0.286846 6.15043 0.447469 6.02172 0.634873 5.94707L15.0489 0.215537Z" fill="#F2F8FC"/>
<path d="M59.4597 7.27344V23.9616H57.2518V11.5178L51.6714 23.9616H50.1185L44.5139 11.4937V23.9616H42.306V7.27344H44.6837L50.895 21.0677L57.1062 7.27344H59.4597Z" fill="white"/>
<path d="M75.3354 16.8474C75.3354 17.2654 75.3111 17.7076 75.2626 18.1738H64.6356C64.7165 19.4761 65.1613 20.497 65.97 21.2365C66.7949 21.96 67.7897 22.3217 68.9543 22.3217C69.9087 22.3217 70.7012 22.1047 71.3321 21.6706C71.9791 21.2204 72.432 20.6256 72.6908 19.886H75.0685C74.7127 21.1561 74.001 22.1931 72.9334 22.997C71.8658 23.7848 70.5395 24.1787 68.9543 24.1787C67.6927 24.1787 66.5604 23.8973 65.5576 23.3346C64.5709 22.7719 63.7945 21.9761 63.2283 20.9471C62.6622 19.9021 62.3792 18.6963 62.3792 17.3298C62.3792 15.9632 62.6541 14.7654 63.2041 13.7365C63.754 12.7076 64.5223 11.9198 65.509 11.3731C66.5119 10.8104 67.6603 10.5291 68.9543 10.5291C70.216 10.5291 71.3321 10.8024 72.3026 11.349C73.2731 11.8956 74.0171 12.6513 74.5347 13.6159C75.0685 14.5645 75.3354 15.6416 75.3354 16.8474ZM73.0547 16.3892C73.0547 15.5532 72.8687 14.8378 72.4967 14.2429C72.1246 13.632 71.6151 13.1738 70.9681 12.8683C70.3373 12.5468 69.6337 12.386 68.8573 12.386C67.7412 12.386 66.7869 12.7397 65.9943 13.4471C65.2179 14.1545 64.7731 15.1352 64.6598 16.3892H73.0547Z" fill="white"/>
<path d="M77.4248 17.3056C77.4248 15.9552 77.6998 14.7735 78.2498 13.7606C78.7997 12.7317 79.5519 11.9358 80.5062 11.3731C81.4767 10.8104 82.5604 10.5291 83.7574 10.5291C84.7926 10.5291 85.755 10.7702 86.6446 11.2526C87.5343 11.7188 88.2136 12.3378 88.6827 13.1095V6.11588H90.9149V23.9616H88.6827V21.4777C88.246 22.2655 87.599 22.9166 86.7417 23.4311C85.8844 23.9295 84.8816 24.1787 83.7331 24.1787C82.5523 24.1787 81.4767 23.8893 80.5062 23.3105C79.5519 22.7317 78.7997 21.9198 78.2498 20.8748C77.6998 19.8298 77.4248 18.6401 77.4248 17.3056ZM88.6827 17.3298C88.6827 16.333 88.4805 15.4648 88.0761 14.7252C87.6718 13.9857 87.1218 13.423 86.4263 13.0371C85.7469 12.6352 84.9948 12.4342 84.1699 12.4342C83.3449 12.4342 82.5928 12.6272 81.9134 13.013C81.2341 13.3989 80.6922 13.9616 80.2878 14.7011C79.8834 15.4407 79.6813 16.3089 79.6813 17.3056C79.6813 18.3185 79.8834 19.2028 80.2878 19.9584C80.6922 20.6979 81.2341 21.2687 81.9134 21.6706C82.5928 22.0565 83.3449 22.2494 84.1699 22.2494C84.9948 22.2494 85.7469 22.0565 86.4263 21.6706C87.1218 21.2687 87.6718 20.6979 88.0761 19.9584C88.4805 19.2028 88.6827 18.3265 88.6827 17.3298Z" fill="white"/>
<path d="M96.8539 13.2059C97.3068 12.4182 97.97 11.7751 98.8434 11.2767C99.7169 10.7783 100.712 10.5291 101.828 10.5291C103.025 10.5291 104.1 10.8104 105.055 11.3731C106.009 11.9358 106.761 12.7317 107.311 13.7606C107.861 14.7735 108.136 15.9552 108.136 17.3056C108.136 18.6401 107.861 19.8298 107.311 20.8748C106.761 21.9198 106.001 22.7317 105.03 23.3105C104.076 23.8893 103.009 24.1787 101.828 24.1787C100.679 24.1787 99.6684 23.9295 98.7949 23.4311C97.9377 22.9327 97.2906 22.2976 96.8539 21.5259V23.9616H94.646V6.11588H96.8539V13.2059ZM105.88 17.3056C105.88 16.3089 105.677 15.4407 105.273 14.7011C104.869 13.9616 104.319 13.3989 103.623 13.013C102.944 12.6272 102.192 12.4342 101.367 12.4342C100.558 12.4342 99.8059 12.6352 99.1103 13.0371C98.431 13.423 97.881 13.9937 97.4605 14.7494C97.0561 15.4889 96.8539 16.349 96.8539 17.3298C96.8539 18.3265 97.0561 19.2028 97.4605 19.9584C97.881 20.6979 98.431 21.2687 99.1103 21.6706C99.8059 22.0565 100.558 22.2494 101.367 22.2494C102.192 22.2494 102.944 22.0565 103.623 21.6706C104.319 21.2687 104.869 20.6979 105.273 19.9584C105.677 19.2028 105.88 18.3185 105.88 17.3056Z" fill="white"/>
<path d="M116.841 24.1787C115.596 24.1787 114.463 23.8973 113.444 23.3346C112.441 22.7719 111.649 21.9761 111.067 20.9471C110.5 19.9021 110.217 18.6963 110.217 17.3298C110.217 15.9793 110.508 14.7896 111.091 13.7606C111.689 12.7156 112.498 11.9198 113.517 11.3731C114.536 10.8104 115.676 10.5291 116.938 10.5291C118.2 10.5291 119.34 10.8104 120.359 11.3731C121.378 11.9198 122.179 12.7076 122.761 13.7365C123.36 14.7654 123.659 15.9632 123.659 17.3298C123.659 18.6963 123.352 19.9021 122.737 20.9471C122.138 21.9761 121.322 22.7719 120.286 23.3346C119.251 23.8973 118.103 24.1787 116.841 24.1787ZM116.841 22.2494C117.634 22.2494 118.378 22.0645 119.073 21.6947C119.769 21.325 120.327 20.7703 120.747 20.0307C121.184 19.2912 121.402 18.3909 121.402 17.3298C121.402 16.2687 121.192 15.3683 120.772 14.6288C120.351 13.8892 119.801 13.3426 119.122 12.9889C118.442 12.6191 117.706 12.4342 116.914 12.4342C116.105 12.4342 115.361 12.6191 114.682 12.9889C114.018 13.3426 113.485 13.8892 113.08 14.6288C112.676 15.3683 112.474 16.2687 112.474 17.3298C112.474 18.4069 112.668 19.3153 113.056 20.0548C113.46 20.7944 113.994 21.3491 114.657 21.7188C115.321 22.0725 116.048 22.2494 116.841 22.2494Z" fill="white"/>
<path d="M133.501 23.9616L130.347 19.042L127.314 23.9616H125.009L129.303 17.4021L125.009 10.7461H127.508L130.662 15.6416L133.671 10.7461H135.976L131.706 17.2815L136 23.9616H133.501Z" fill="white"/>
</svg>
