<svg width="30" height="31" viewBox="0 0 30 31" fill="none" xmlns="http://www.w3.org/2000/svg">
<path d="M9.74533 28.0327V10.368C9.74533 9.13609 10.0647 8.08082 10.8698 7.59159V7.2959C9.21383 7.2959 7.87122 8.67144 7.87122 10.368V28.0327C7.87122 29.3045 8.87799 30.3368 10.1201 30.3368H11.9943C10.7521 30.3368 9.74533 29.3045 9.74533 28.0327Z" fill="#004776"/>
<path d="M21.3648 7.29627V4.99219H13.1188H11.9943H10.8698V7.59196C10.0647 8.0812 9.74536 9.13647 9.74536 10.3684V28.033C9.74536 29.3049 10.7521 30.3371 11.9943 30.3371H22.1145C23.3566 30.3371 24.3634 29.3049 24.3634 28.033V10.3684C24.3634 8.67181 23.0208 7.29627 21.3648 7.29627Z" fill="#004776"/>
<path d="M22.4894 28.0327V10.368C22.4894 9.13609 22.1701 8.08082 21.3649 7.59159V7.2959C23.0209 7.2959 24.3635 8.67144 24.3635 10.368V28.0327C24.3635 29.3045 23.3567 30.3368 22.1146 30.3368H20.2405C21.4826 30.3368 22.4894 29.3045 22.4894 28.0327Z" fill="#004776"/>
<path d="M22.1145 30.7214H10.1202C8.6734 30.7214 7.49646 29.5156 7.49646 28.0333V10.3686C7.49646 8.59216 8.81059 7.12523 10.495 6.93322V4.6084H21.7397V6.93322C23.4241 7.12523 24.7383 8.59216 24.7383 10.3686V28.0333C24.7383 29.5156 23.5613 30.7214 22.1145 30.7214ZM10.8699 7.68051C9.42305 7.68051 8.2461 8.88632 8.2461 10.3686V28.0333C8.2461 29.0924 9.0872 29.9533 10.1202 29.9533H22.1145C23.1475 29.9533 23.9886 29.0924 23.9886 28.0333V10.3686C23.9886 8.88632 22.8117 7.68051 21.3649 7.68051H20.9901V5.37643H11.2447V7.68051H10.8699Z" fill="#004776"/>
<path d="M22.1146 0.383789H10.1203C9.29265 0.383789 8.62097 1.07194 8.62097 1.91985V3.4559C8.62097 4.30381 9.29265 4.99196 10.1203 4.99196H22.1146C22.9422 4.99196 23.6139 4.30381 23.6139 3.4559V1.91985C23.6139 1.07194 22.9422 0.383789 22.1146 0.383789Z" fill="#004776"/>
<path d="M22.1146 0.383789H10.1203C9.29265 0.383789 8.62097 1.07194 8.62097 1.91985V3.4559C8.62097 4.30381 9.29265 4.99196 10.1203 4.99196H22.1146C22.9422 4.99196 23.6139 4.30381 23.6139 3.4559V1.91985C23.6139 1.07194 22.9422 0.383789 22.1146 0.383789Z" fill="#004776"/>
<path d="M23.6138 3.4559V1.91985C23.6138 1.07194 22.9421 0.383789 22.1145 0.383789H11.2446C10.417 0.383789 9.74536 1.07194 9.74536 1.91985V3.4559C9.74536 4.30381 10.417 4.99196 11.2446 4.99196H22.1145C22.9421 4.99196 23.6138 4.30381 23.6138 3.4559Z" fill="#004776"/>
<path d="M23.6137 3.4559V1.91985C23.6137 1.07194 22.9421 0.383789 22.1145 0.383789H20.99C21.8176 0.383789 22.4893 1.07194 22.4893 1.91985V3.4559C22.4893 4.30381 21.8176 4.99196 20.99 4.99196H22.1145C22.9421 4.99196 23.6137 4.30381 23.6137 3.4559Z" fill="#004776"/>
<path d="M22.1145 5.3762H10.1202C9.08719 5.3762 8.24609 4.51524 8.24609 3.45613V1.92007C8.24609 0.86096 9.08719 0 10.1202 0H22.1145C23.1475 0 23.9886 0.86096 23.9886 1.92007V3.45613C23.9886 4.51524 23.1475 5.3762 22.1145 5.3762ZM10.1202 0.768028C9.50025 0.768028 8.99574 1.28491 8.99574 1.92007V3.45613C8.99574 4.09129 9.50025 4.60817 10.1202 4.60817H22.1145C22.7345 4.60817 23.239 4.09129 23.239 3.45613V1.92007C23.239 1.28491 22.7345 0.768028 22.1145 0.768028H10.1202Z" fill="#004776"/>
<path d="M24.3634 12.6729H7.87122V25.7293H24.3634V12.6729Z" fill="#004776"/>
<path d="M24.3634 12.6729H9.74536V25.7293H24.3634V12.6729Z" fill="#004776"/>
<path d="M24.3635 12.6729H22.4894V25.7293H24.3635V12.6729Z" fill="#004776"/>
<path d="M24.7383 26.1126H7.49646V12.2881H24.7383V26.1126ZM8.2461 25.3446H23.9886V13.0561H8.2461V25.3446Z" fill="#04D9B2" fill-opacity="0.3"/>
<path d="M20.99 5.37598H11.2446V6.144H20.99V5.37598Z" fill="#004776"/>
<path d="M16.4922 23.0406C18.5623 23.0406 20.2405 21.3213 20.2405 19.2005C20.2405 17.0796 18.5623 15.3604 16.4922 15.3604C14.4222 15.3604 12.744 17.0796 12.744 19.2005C12.744 21.3213 14.4222 23.0406 16.4922 23.0406Z" fill="#04D9B2" fill-opacity="0.3"/>
</svg>
